<svg width="24" height="24" viewBox="0 0 24 24" fill="none" xmlns="http://www.w3.org/2000/svg">
<rect width="24" height="24" rx="12" fill="white"/>
<path d="M15.3864 6C16.4801 6 17.3864 6.90625 17.3864 8V18C17.3864 19.125 16.4801 20 15.3864 20H7.38636C6.26136 20 5.38636 19.125 5.38636 18V8C5.38636 6.90625 6.26136 6 7.38636 6H8.91761C9.16761 4.875 10.1676 4 11.3864 4C12.5739 4 13.5739 4.875 13.8239 6H15.3864ZM11.3864 5.5C10.9489 5.5 10.6364 5.84375 10.6364 6.25C10.6364 6.6875 10.9489 7 11.3864 7C11.7926 7 12.1364 6.6875 12.1364 6.25C12.1364 5.84375 11.7926 5.5 11.3864 5.5ZM15.8864 18V8C15.8864 7.75 15.6364 7.5 15.3864 7.5H14.7926C14.8551 7.6875 14.8864 7.84375 14.8864 8V8.5C14.8864 8.78125 14.6364 9 14.3864 9H8.38636C8.10511 9 7.88636 8.78125 7.88636 8.5V8C7.88636 7.84375 7.88636 7.6875 7.94886 7.5H7.38636C7.10511 7.5 6.88636 7.75 6.88636 8V18C6.88636 18.2812 7.10511 18.5 7.38636 18.5H15.3864C15.6364 18.5 15.8864 18.2812 15.8864 18ZM14.3864 12C14.6364 12 14.8864 12.25 14.8864 12.5C14.8864 12.7812 14.6364 13 14.3864 13H10.8864C10.6051 13 10.3864 12.7812 10.3864 12.5C10.3864 12.25 10.6051 12 10.8864 12H14.3864ZM14.3864 15C14.6364 15 14.8864 15.25 14.8864 15.5C14.8864 15.7812 14.6364 16 14.3864 16H10.8864C10.6051 16 10.3864 15.7812 10.3864 15.5C10.3864 15.25 10.6051 15 10.8864 15H14.3864ZM8.63636 14.75C9.04261 14.75 9.38636 15.0938 9.38636 15.5C9.38636 15.9375 9.04261 16.25 8.63636 16.25C8.19886 16.25 7.88636 15.9375 7.88636 15.5C7.88636 15.0938 8.19886 14.75 8.63636 14.75ZM8.76136 13C8.60511 13 8.48011 12.9688 8.38636 12.875L7.63636 12.125C7.44886 11.9375 7.44886 11.5938 7.63636 11.4062C7.82386 11.2188 8.16761 11.2188 8.35511 11.4062L8.76136 11.8125L9.88636 10.6562C10.0739 10.4688 10.4176 10.4688 10.6051 10.6562C10.7926 10.8438 10.7926 11.1875 10.6051 11.375L9.10511 12.875C9.01136 12.9688 8.88636 13 8.76136 13Z" fill="#104B86"/>
</svg>
