<svg width="17" height="18" viewBox="0 0 17 18" fill="none" xmlns="http://www.w3.org/2000/svg">
<path d="M12.8333 2.49967H16.1666C16.3876 2.49967 16.5996 2.58747 16.7558 2.74375C16.9121 2.90003 16.9999 3.11199 16.9999 3.33301V16.6663C16.9999 16.8874 16.9121 17.0993 16.7558 17.2556C16.5996 17.4119 16.3876 17.4997 16.1666 17.4997H1.16659C0.945572 17.4997 0.73361 17.4119 0.57733 17.2556C0.421049 17.0993 0.333252 16.8874 0.333252 16.6663V3.33301C0.333252 3.11199 0.421049 2.90003 0.57733 2.74375C0.73361 2.58747 0.945572 2.49967 1.16659 2.49967H4.49992V0.833008H6.16659V2.49967H11.1666V0.833008H12.8333V2.49967ZM11.1666 4.16634H6.16659V5.83301H4.49992V4.16634H1.99992V7.49967H15.3333V4.16634H12.8333V5.83301H11.1666V4.16634ZM15.3333 9.16634H1.99992V15.833H15.3333V9.16634Z" fill="#BEBEC6"/>
</svg>
