<svg width="16" height="18" viewBox="0 0 16 18" fill="none" xmlns="http://www.w3.org/2000/svg">
<path d="M13.8333 7.33268H14.6667C14.8877 7.33268 15.0996 7.42048 15.2559 7.57676C15.4122 7.73304 15.5 7.945 15.5 8.16602V16.4993C15.5 16.7204 15.4122 16.9323 15.2559 17.0886C15.0996 17.2449 14.8877 17.3327 14.6667 17.3327H1.33333C1.11232 17.3327 0.900358 17.2449 0.744078 17.0886C0.587797 16.9323 0.5 16.7204 0.5 16.4993V8.16602C0.5 7.945 0.587797 7.73304 0.744078 7.57676C0.900358 7.42048 1.11232 7.33268 1.33333 7.33268H2.16667V6.49935C2.16667 5.7333 2.31755 4.97476 2.6107 4.26703C2.90386 3.5593 3.33354 2.91623 3.87521 2.37456C4.41689 1.83288 5.05995 1.4032 5.76768 1.11005C6.47541 0.816899 7.23396 0.666016 8 0.666016C8.76604 0.666016 9.52459 0.816899 10.2323 1.11005C10.9401 1.4032 11.5831 1.83288 12.1248 2.37456C12.6665 2.91623 13.0961 3.5593 13.3893 4.26703C13.6825 4.97476 13.8333 5.7333 13.8333 6.49935V7.33268ZM12.1667 7.33268V6.49935C12.1667 5.39428 11.7277 4.33447 10.9463 3.55307C10.1649 2.77167 9.10507 2.33268 8 2.33268C6.89493 2.33268 5.83512 2.77167 5.05372 3.55307C4.27232 4.33447 3.83333 5.39428 3.83333 6.49935V7.33268H12.1667ZM7.16667 10.666V13.9993H8.83333V10.666H7.16667Z" fill="#BEBEC6"/>
</svg>
