<svg width="27" height="26" viewBox="0 0 27 26" fill="none" xmlns="http://www.w3.org/2000/svg">
<path d="M10.7188 5.0625C10.875 4.71875 11.2188 4.5 11.5938 4.5H15.375C15.75 4.5 16.0938 4.71875 16.25 5.0625L16.5 5.5H19.5C20.0312 5.5 20.5 5.96875 20.5 6.5C20.5 7.0625 20.0312 7.5 19.5 7.5H7.5C6.9375 7.5 6.5 7.0625 6.5 6.5C6.5 5.96875 6.9375 5.5 7.5 5.5H10.5L10.7188 5.0625ZM18.8125 19.0938C18.7812 19.9062 18.125 20.5 17.3125 20.5H9.65625C8.84375 20.5 8.1875 19.9062 8.15625 19.0938L7.46875 8.5H19.5L18.8125 19.0938Z" fill="#F04A47"/>
</svg>
