<svg width="26" height="26" viewBox="0 0 26 26" fill="none" xmlns="http://www.w3.org/2000/svg">
<path d="M16.3125 5.125C17.0938 4.34375 18.375 4.34375 19.1562 5.125L20.375 6.34375C21.1562 7.125 21.1562 8.40625 20.375 9.1875L18.875 10.6875L14.8125 6.625L16.3125 5.125ZM18.1562 11.4062L10.875 18.6875C10.5625 19 10.1562 19.25 9.71875 19.375L5.9375 20.4688C5.6875 20.5625 5.40625 20.5 5.21875 20.2812C5 20.0938 4.9375 19.8125 5 19.5625L6.125 15.7812C6.25 15.3438 6.5 14.9375 6.8125 14.625L14.0938 7.34375L18.1562 11.4062Z" fill="#69B1FF"/>
</svg>
