<svg width="17" height="16" viewBox="0 0 17 16" fill="none" xmlns="http://www.w3.org/2000/svg">
<path d="M9.1384 4C8.96296 4 8.80702 4.0536 8.69006 4.1608C8.43665 4.37521 8.43665 4.75042 8.69006 4.96482L11.9844 8.00223L8.69006 11.0218C8.43665 11.2362 8.43665 11.6114 8.69006 11.8258C8.92398 12.0581 9.33333 12.0581 9.56725 11.8258L13.3099 8.39531C13.5634 8.1809 13.5634 7.8057 13.3099 7.59129L9.56725 4.1608C9.45029 4.0536 9.29435 4 9.1384 4Z" fill="#546E7A"/>
<path d="M5.1384 4C4.96296 4 4.80702 4.0536 4.69006 4.1608C4.43665 4.37521 4.43665 4.75042 4.69006 4.96482L7.98441 8.00223L4.69006 11.0218C4.43665 11.2362 4.43665 11.6114 4.69006 11.8258C4.92398 12.0581 5.33333 12.0581 5.56725 11.8258L9.30994 8.39531C9.56335 8.18091 9.56335 7.8057 9.30994 7.59129L5.56725 4.1608C5.45029 4.0536 5.29435 4 5.1384 4Z" fill="#546E7A"/>
</svg>
