<svg width="12" height="11" viewBox="0 0 12 11" fill="none" xmlns="http://www.w3.org/2000/svg">
<path d="M11.3496 5.125C11.3496 5.48047 11.0703 5.75977 10.7402 5.75977H2.10742L5.48438 8.95898C5.73828 9.1875 5.73828 9.59375 5.50977 9.82227C5.28125 10.0762 4.90039 10.0762 4.64648 9.84766L0.177734 5.58203C0.0507812 5.45508 0 5.30273 0 5.125C0 4.97266 0.0507812 4.82031 0.177734 4.69336L4.64648 0.427734C4.90039 0.199219 5.28125 0.199219 5.50977 0.453125C5.73828 0.681641 5.73828 1.08789 5.48438 1.31641L2.10742 4.51562H10.7402C11.0957 4.51562 11.3496 4.79492 11.3496 5.125Z" fill="#546E7A"/>
</svg>
