<svg width="13" height="13" viewBox="0 0 13 13" fill="none" xmlns="http://www.w3.org/2000/svg">
<path d="M11.1406 7.27344C10.8359 7.17969 10.5312 7.34375 10.4375 7.64844C9.94531 9.40625 8.30469 10.625 6.47656 10.625C4.90625 10.625 3.5 9.73438 2.79688 8.375H5.16406C5.46875 8.375 5.72656 8.14062 5.72656 7.8125C5.72656 7.50781 5.49219 7.25 5.16406 7.25H1.41406C1.10938 7.25 0.851562 7.50781 0.851562 7.8125V11.5625C0.851562 11.8906 1.10938 12.125 1.41406 12.125C1.74219 12.125 1.97656 11.8906 1.97656 11.5625V9.17188C2.91406 10.7422 4.625 11.75 6.47656 11.75C8.79688 11.75 10.8594 10.2031 11.5156 7.97656C11.6094 7.67188 11.4453 7.36719 11.1406 7.27344ZM11.5625 0.875C11.2344 0.875 11 1.13281 11 1.4375V3.85156C10.0625 2.28125 8.35156 1.25 6.5 1.25C4.17969 1.25 2.09375 2.82031 1.4375 5.04688C1.36719 5.32812 1.53125 5.65625 1.83594 5.72656C2.14062 5.82031 2.44531 5.65625 2.51562 5.35156C3.03125 3.61719 4.67188 2.375 6.5 2.375C8.04688 2.375 9.45312 3.28906 10.1562 4.625H7.8125C7.48438 4.625 7.25 4.88281 7.25 5.1875C7.25 5.51562 7.48438 5.75 7.8125 5.75H11.5625C11.8672 5.75 12.125 5.51562 12.125 5.1875V1.4375C12.125 1.13281 11.8672 0.875 11.5625 0.875Z" fill="#607D8B"/>
</svg>
