<svg width="11" height="13" viewBox="0 0 11 13" fill="none" xmlns="http://www.w3.org/2000/svg">
<path d="M10.3047 2.70312L8.54688 0.945312C8.26562 0.664062 7.89062 0.5 7.49219 0.5H4C3.15625 0.5 2.5 1.17969 2.5 2V8.75C2.5 9.59375 3.15625 10.25 4 10.25H9.25C10.0703 10.25 10.75 9.59375 10.75 8.75V3.75781C10.75 3.35938 10.5859 2.98438 10.3047 2.70312ZM9.625 8.75C9.625 8.96094 9.4375 9.125 9.25 9.125H4C3.78906 9.125 3.625 8.96094 3.625 8.75V2.02344C3.625 1.8125 3.78906 1.64844 4 1.64844H7V3.5C7 3.92188 7.32812 4.25 7.75 4.25H9.60156V8.75H9.625ZM7.9375 12.5H3.0625C1.49219 12.5 0.25 11.2578 0.25 9.6875V3.3125C0.25 3.00781 0.484375 2.75 0.8125 2.75C1.11719 2.75 1.375 3.00781 1.375 3.3125V9.6875C1.375 10.625 2.125 11.375 3.0625 11.375H7.9375C8.24219 11.375 8.5 11.6328 8.5 11.9375C8.5 12.2656 8.24219 12.5 7.9375 12.5Z" fill="#4086E7"/>
</svg>
