<svg width="16" height="16" viewBox="0 0 16 16" fill="none" xmlns="http://www.w3.org/2000/svg">
<path d="M7.3616 4C7.53704 4 7.69298 4.0536 7.80994 4.1608C8.06335 4.37521 8.06335 4.75042 7.80994 4.96482L4.51559 8.00223L7.80994 11.0218C8.06335 11.2362 8.06335 11.6114 7.80994 11.8258C7.57602 12.0581 7.16667 12.0581 6.93275 11.8258L3.19006 8.39531C2.93665 8.1809 2.93665 7.8057 3.19006 7.59129L6.93275 4.1608C7.04971 4.0536 7.20565 4 7.3616 4Z" fill="#546E7A"/>
<path d="M11.3616 4C11.537 4 11.693 4.0536 11.8099 4.1608C12.0634 4.37521 12.0634 4.75042 11.8099 4.96482L8.51559 8.00223L11.8099 11.0218C12.0634 11.2362 12.0634 11.6114 11.8099 11.8258C11.576 12.0581 11.1667 12.0581 10.9327 11.8258L7.19006 8.39531C6.93665 8.18091 6.93665 7.8057 7.19006 7.59129L10.9327 4.1608C11.0497 4.0536 11.2057 4 11.3616 4Z" fill="#546E7A"/>
</svg>
