<svg width="14" height="13" viewBox="0 0 14 13" fill="none" xmlns="http://www.w3.org/2000/svg">
<path d="M13.0938 6.375C13.0938 6.90234 12.6543 7.3418 12.1562 7.3418H7.9375V11.5605C7.9375 12.0586 7.49805 12.4688 7 12.4688C6.47266 12.4688 6.0625 12.0586 6.0625 11.5605V7.3418H1.84375C1.31641 7.3418 0.90625 6.90234 0.90625 6.375C0.90625 5.87695 1.31641 5.4668 1.84375 5.4668H6.0625V1.24805C6.0625 0.720703 6.47266 0.28125 7 0.28125C7.49805 0.28125 7.9375 0.720703 7.9375 1.24805V5.4668H12.1562C12.6543 5.4375 13.0938 5.87695 13.0938 6.375Z" fill="#607D8B"/>
</svg>
