<svg width="14" height="11" viewBox="0 0 14 11" fill="none" xmlns="http://www.w3.org/2000/svg">
<path d="M5.85156 6.6875H3.87891C2.00391 6.6875 0.5 8.21094 0.5 10.0859C0.5 10.457 0.792969 10.75 1.16406 10.75H8.56641C8.9375 10.75 9.25 10.457 9.25 10.0859C9.25 8.21094 7.72656 6.6875 5.85156 6.6875ZM1.4375 9.8125C1.57422 8.60156 2.60938 7.625 3.87891 7.625H5.85156C7.12109 7.625 8.13672 8.60156 8.29297 9.8125H1.4375ZM4.875 5.75C6.24219 5.75 7.375 4.63672 7.375 3.25C7.375 1.88281 6.24219 0.75 4.875 0.75C3.48828 0.75 2.375 1.88281 2.375 3.25C2.375 4.63672 3.48828 5.75 4.875 5.75ZM4.875 1.6875C5.73438 1.6875 6.4375 2.39062 6.4375 3.25C6.4375 4.12891 5.73438 4.8125 4.875 4.8125C3.99609 4.8125 3.3125 4.12891 3.3125 3.25C3.3125 2.39062 3.99609 1.6875 4.875 1.6875ZM12.8438 3.38672C12.6484 3.21094 12.3555 3.21094 12.1797 3.40625L10.4805 5.24219L9.71875 4.5C9.54297 4.30469 9.25 4.30469 9.07422 4.5C8.87891 4.67578 8.87891 4.96875 9.07422 5.14453L10.168 6.23828C10.2461 6.33594 10.3633 6.375 10.5 6.375C10.6172 6.375 10.7539 6.33594 10.832 6.23828L12.8633 4.05078C13.0391 3.85547 13.0391 3.5625 12.8438 3.38672Z" fill="#546E7A"/>
</svg>
