<svg width="9" height="8" viewBox="0 0 9 8" fill="none" xmlns="http://www.w3.org/2000/svg">
<path d="M4.3616 5.58108e-08C4.53704 4.04735e-08 4.69298 0.0536013 4.80994 0.160804C5.06335 0.375209 5.06335 0.750419 4.80994 0.964824L1.51559 4.00223L4.80994 7.02178C5.06335 7.23618 5.06335 7.61139 4.80994 7.8258C4.57602 8.05807 4.16667 8.05807 3.93275 7.8258L0.190058 4.39531C-0.0633534 4.1809 -0.0633534 3.8057 0.190058 3.59129L3.93275 0.160804C4.04971 0.0536013 4.20565 6.9444e-08 4.3616 5.58108e-08Z" fill="#3B74D4"/>
<path d="M8.3616 5.58108e-08C8.53704 4.04735e-08 8.69298 0.0536013 8.80994 0.160804C9.06335 0.375209 9.06335 0.750419 8.80994 0.964824L5.51559 4.00223L8.80994 7.02178C9.06335 7.23618 9.06335 7.61139 8.80994 7.8258C8.57602 8.05807 8.16667 8.05807 7.93275 7.8258L4.19006 4.39531C3.93665 4.1809 3.93665 3.8057 4.19006 3.59129L7.93275 0.160804C8.04971 0.0536013 8.20565 6.9444e-08 8.3616 5.58108e-08Z" fill="#3B74D4"/>
</svg>
