<svg width="12" height="13" viewBox="0 0 12 13" fill="none" xmlns="http://www.w3.org/2000/svg">
<path d="M6.70312 1.42773L11.1719 5.69336C11.2988 5.82031 11.375 5.97266 11.375 6.15039C11.375 6.30273 11.2988 6.45508 11.1719 6.58203L6.70312 10.8477C6.47461 11.0762 6.06836 11.0762 5.83984 10.8223C5.61133 10.5938 5.61133 10.1875 5.86523 9.95898L9.24219 6.75977H0.609375C0.253906 6.75977 0 6.48047 0 6.15039C0 5.79492 0.253906 5.54102 0.609375 5.54102H9.24219L5.86523 2.31641C5.61133 2.08789 5.61133 1.68164 5.83984 1.45312C6.06836 1.19922 6.44922 1.19922 6.70312 1.42773Z" fill="#546E7A"/>
</svg>
