<svg width="15" height="10" viewBox="0 0 15 10" fill="none" xmlns="http://www.w3.org/2000/svg">
<path d="M15 8.75C15 9.17188 14.6484 9.5 14.25 9.5C13.8281 9.5 13.5 9.17188 13.5 8.75V1.25C13.5 0.851562 13.8281 0.5 14.25 0.5C14.6484 0.5 15 0.851562 15 1.25V8.75ZM7.71094 8.53906C7.40625 8.25781 7.40625 7.76562 7.71094 7.48438L9.42188 5.75H0.75C0.328125 5.75 0 5.42188 0 5C0 4.60156 0.328125 4.25 0.75 4.25H9.42188L7.71094 2.53906C7.40625 2.25781 7.40625 1.76562 7.71094 1.48438C7.99219 1.17969 8.48438 1.17969 8.76562 1.48438L11.7656 4.48438C12.0703 4.76562 12.0703 5.25781 11.7656 5.53906L8.76562 8.53906C8.48438 8.84375 7.99219 8.84375 7.71094 8.53906Z" fill="#607D8B"/>
</svg>
