<svg width="11" height="15" viewBox="0 0 11 15" fill="none" xmlns="http://www.w3.org/2000/svg">
<path d="M7 0.75V4.25H10.5L7 0.75ZM6.125 4.25V0.75H1.3125C0.574219 0.75 0 1.35156 0 2.0625V13.4375C0 14.1758 0.574219 14.75 1.3125 14.75H9.1875C9.89844 14.75 10.5 14.1758 10.5 13.4375V5.125H7C6.50781 5.125 6.125 4.74219 6.125 4.25ZM8.09375 9.9375C8.09375 10.3203 7.79297 10.5938 7.4375 10.5938H5.90625V12.125C5.87891 12.5078 5.60547 12.7812 5.25 12.7812C4.86719 12.7812 4.59375 12.5078 4.59375 12.1523V10.5938H3.03516C2.67969 10.5938 2.40625 10.3203 2.40625 9.9375C2.40625 9.58203 2.67969 9.30859 3.03516 9.30859H4.59375V7.75C4.59375 7.39453 4.86719 7.09375 5.25 7.09375C5.60547 7.09375 5.87891 7.39453 5.87891 7.75V9.28125H7.4375C7.79297 9.28125 8.09375 9.58203 8.09375 9.9375Z" fill="#DA9F47"/>
</svg>
