<svg width="11" height="12" viewBox="0 0 11 12" fill="none" xmlns="http://www.w3.org/2000/svg">
<path d="M6.21094 4.03906C5.90625 3.75781 5.90625 3.26562 6.21094 2.98438C6.49219 2.67969 6.98438 2.67969 7.26562 2.98438L10.2656 5.98438C10.5703 6.26562 10.5703 6.75781 10.2656 7.03906L7.26562 10.0391C6.98438 10.3438 6.49219 10.3438 6.21094 10.0391C6.07031 9.89844 6 9.71094 6 9.5C6 9.3125 6.07031 9.125 6.21094 8.98438L7.92188 7.25H3.75C3.32812 7.25 3 6.92188 3 6.5C3 6.10156 3.32812 5.75 3.75 5.75H7.92188L6.21094 4.03906ZM1.5 10.25C1.5 10.6719 1.14844 11 0.75 11C0.328125 11 0 10.6719 0 10.25V2.75C0 2.35156 0.328125 2 0.75 2C1.14844 2 1.5 2.35156 1.5 2.75V10.25Z" fill="#546E7A"/>
</svg>
