<svg width="12" height="9" viewBox="0 0 12 9" fill="none" xmlns="http://www.w3.org/2000/svg">
<path d="M5.26562 6.98438C5.57031 7.26562 5.57031 7.75781 5.26562 8.03906C4.98438 8.34375 4.49219 8.34375 4.21094 8.03906L1.21094 5.03906C0.90625 4.75781 0.90625 4.26562 1.21094 3.98438L4.21094 0.984375C4.49219 0.679688 4.98438 0.679688 5.26562 0.984375C5.40625 1.125 5.5 1.3125 5.5 1.5C5.5 1.71094 5.40625 1.89844 5.26562 2.03906L3.55469 3.75H7.75C8.14844 3.75 8.5 4.10156 8.5 4.5C8.5 4.92188 8.14844 5.25 7.75 5.25H3.55469L5.26562 6.98438ZM10 0.75C10 0.351562 10.3281 0 10.75 0C11.1484 0 11.5 0.351562 11.5 0.75V8.25C11.5 8.67188 11.1484 9 10.75 9C10.3281 9 10 8.67188 10 8.25V0.75Z" fill="#546E7A"/>
</svg>
