<svg width="16" height="16" viewBox="0 0 16 16" fill="none" xmlns="http://www.w3.org/2000/svg">
<rect x="0.5" y="0.5" width="15" height="15" rx="3.5" fill="white"/>
<path d="M11.75 8C11.75 8.28125 11.5156 8.51562 11.25 8.51562H9V10.7656C9 11.0312 8.76562 11.25 8.5 11.25C8.21875 11.25 8 11.0312 8 10.7656V8.51562H5.75C5.46875 8.51562 5.25 8.28125 5.25 8C5.25 7.73438 5.46875 7.51562 5.75 7.51562H8V5.26562C8 4.98438 8.21875 4.75 8.5 4.75C8.76562 4.75 9 4.98438 9 5.26562V7.51562H11.25C11.5156 7.5 11.75 7.73438 11.75 8Z" fill="#37474F"/>
<rect x="0.5" y="0.5" width="15" height="15" rx="3.5" stroke="#455A64"/>
</svg>
