<svg width="14" height="13" viewBox="0 0 14 13" fill="none" xmlns="http://www.w3.org/2000/svg">
<path d="M1.72656 11.375H6.90625C7.1875 11.8203 7.53906 12.1953 7.96094 12.5C7.89062 12.5 7.82031 12.5 7.75 12.5H1.75C0.90625 12.5 0.25 11.8438 0.25 11V2C0.25 1.17969 0.90625 0.5 1.75 0.5H5.61719C6.01562 0.5 6.39062 0.664062 6.67188 0.945312L8.80469 3.07812C9.08594 3.35938 9.25 3.73438 9.25 4.13281V5.16406C8.82812 5.28125 8.45312 5.44531 8.125 5.67969V4.25H6.25C5.82812 4.25 5.5 3.92188 5.5 3.5V1.625H1.75C1.53906 1.625 1.375 1.8125 1.375 2V11C1.375 11.2109 1.53906 11.375 1.75 11.375H1.72656ZM6.97656 9.125C6.97656 7.27344 8.5 5.75 10.375 5.75C12.2266 5.75 13.75 7.27344 13.75 9.125C13.75 11 12.2266 12.5 10.375 12.5C8.5 12.5 6.97656 11 6.97656 9.125ZM10.75 7.625C10.75 7.4375 10.5625 7.25 10.375 7.25C10.1641 7.25 10 7.4375 10 7.625V8.75H8.875C8.66406 8.75 8.5 8.9375 8.5 9.125C8.5 9.33594 8.66406 9.5 8.875 9.5H10V10.625C10 10.8359 10.1641 11 10.375 11C10.5625 11 10.75 10.8359 10.75 10.625V9.5H11.875C12.0625 9.5 12.25 9.33594 12.25 9.125C12.25 8.9375 12.0625 8.75 11.875 8.75H10.75V7.625Z" fill="#607D8B"/>
</svg>
