<svg width="14" height="15" viewBox="0 0 14 15" fill="none" xmlns="http://www.w3.org/2000/svg">
<path d="M7 0.75C10.8555 0.75 14 3.89453 14 7.75C14 11.6328 10.8555 14.75 7 14.75C5.49609 14.75 4.12891 14.2852 2.98047 13.5195C2.59766 13.2188 2.48828 12.6719 2.76172 12.2891C3.03516 11.8789 3.58203 11.7969 3.99219 12.0703C4.83984 12.6719 5.87891 13 7 13C9.89844 13 12.25 10.6484 12.25 7.75C12.25 4.85156 9.89844 2.5 7 2.5C5.52344 2.5 4.23828 3.10156 3.28125 4.05859L4.12891 4.87891C4.53906 5.31641 4.23828 6 3.66406 6H0.65625C0.273438 6 0 5.72656 0 5.34375V2.33594C0 1.76172 0.683594 1.46094 1.09375 1.87109L2.02344 2.80078C3.30859 1.54297 5.05859 0.75 6.97266 0.75H7ZM7 4.25C7.35547 4.25 7.65625 4.55078 7.65625 4.90625V7.50391L9.40625 9.25391C9.67969 9.52734 9.67969 9.9375 9.40625 10.1836C9.16016 10.457 8.75 10.457 8.50391 10.1836L6.53516 8.21484C6.39844 8.10547 6.34375 7.94141 6.34375 7.75V4.90625C6.34375 4.55078 6.61719 4.25 7 4.25Z" fill="#DA9F47"/>
</svg>
