<svg width="14" height="14" viewBox="0 0 14 14" fill="none" xmlns="http://www.w3.org/2000/svg">
<path d="M6.03906 7.375H2.85156C2.54688 7.375 2.26562 7.5625 2.14844 7.84375C2.05469 8.125 2.125 8.45312 2.33594 8.66406L3.03906 9.36719L1.21094 11.1953C0.90625 11.5 0.90625 11.9688 1.21094 12.25L1.72656 12.7891C2.03125 13.0938 2.5 13.0938 2.80469 12.7891L4.63281 10.9609L5.33594 11.6641C5.47656 11.8047 5.66406 11.875 5.85156 11.875C5.96875 11.875 6.0625 11.875 6.15625 11.8281C6.4375 11.7109 6.60156 11.4297 6.60156 11.125V7.9375C6.60156 7.63281 6.36719 7.375 6.03906 7.375ZM7.9375 6.625H11.125C11.4062 6.625 11.6875 6.46094 11.8047 6.17969C11.9219 5.89844 11.8516 5.57031 11.6406 5.35938L10.9375 4.65625L12.7656 2.82812C13.0703 2.52344 13.0703 2.05469 12.7656 1.75L12.25 1.23438C11.9453 0.929688 11.4766 0.929688 11.1719 1.23438L9.34375 3.0625L8.64062 2.35938C8.42969 2.14844 8.10156 2.07812 7.82031 2.19531C7.53906 2.3125 7.375 2.59375 7.375 2.89844V6.0625C7.375 6.39062 7.60938 6.625 7.9375 6.625Z" fill="#455A64"/>
</svg>
