<svg width="16" height="15" viewBox="0 0 16 15" fill="none" xmlns="http://www.w3.org/2000/svg">
<path d="M0 2.5C0 1.54297 0.765625 0.75 1.75 0.75H6.125V4.25C6.125 4.74219 6.50781 5.125 7 5.125H10.5V6.19141C8.47656 6.76562 7 8.625 7 10.8125C7 12.4531 7.79297 13.875 8.99609 14.75C8.91406 14.75 8.83203 14.75 8.75 14.75H1.75C0.765625 14.75 0 13.9844 0 13V2.5ZM7 4.25V0.75L10.5 4.25H7ZM15.75 10.8125C15.75 13 13.9727 14.75 11.8125 14.75C9.625 14.75 7.875 13 7.875 10.8125C7.875 8.65234 9.625 6.875 11.8125 6.875C13.9727 6.875 15.75 8.65234 15.75 10.8125ZM13.0156 9.63672L11.375 11.3047L10.582 10.5117C10.418 10.3477 10.1172 10.3477 9.95312 10.5117C9.78906 10.6758 9.78906 10.9766 9.95312 11.1406L11.0469 12.2344C11.2109 12.3984 11.5117 12.3984 11.6758 12.2344L13.6445 10.2656C13.8086 10.1016 13.8086 9.80078 13.6445 9.63672C13.4805 9.47266 13.1797 9.47266 13.0156 9.63672Z" fill="#10B981"/>
</svg>
