<svg width="11" height="15" viewBox="0 0 11 15" fill="none" xmlns="http://www.w3.org/2000/svg">
<path d="M10.5 4.25H7V0.75L10.5 4.25ZM7 5.125H10.5V13.4375C10.5 14.1758 9.89844 14.75 9.1875 14.75H1.3125C0.574219 14.75 0 14.1758 0 13.4375V2.0625C0 1.35156 0.574219 0.75 1.3125 0.75H6.125V4.25C6.125 4.74219 6.50781 5.125 7 5.125ZM6.69922 7.99609L4.53906 10.5117L3.71875 9.71875C3.47266 9.44531 3.0625 9.44531 2.81641 9.71875C2.54297 9.96484 2.54297 10.375 2.81641 10.6211L4.12891 11.9336C4.23828 12.0703 4.40234 12.1523 4.59375 12.1523C4.59375 12.1523 4.59375 12.1523 4.59375 12.125C4.78516 12.125 4.94922 12.043 5.08594 11.9062L7.71094 8.84375C7.92969 8.57031 7.90234 8.16016 7.62891 7.91406C7.35547 7.69531 6.94531 7.72266 6.69922 7.99609Z" fill="#10B981"/>
</svg>
