<svg width="16" height="15" viewBox="0 0 16 15" fill="none" xmlns="http://www.w3.org/2000/svg">
<path d="M0.125 2.5C0.125 1.54297 0.890625 0.75 1.875 0.75H6.25V4.25C6.25 4.74219 6.63281 5.125 7.125 5.125H10.625V6.19141C8.60156 6.76562 7.125 8.625 7.125 10.8125C7.125 12.4531 7.91797 13.875 9.12109 14.75C9.03906 14.75 8.95703 14.75 8.875 14.75H1.875C0.890625 14.75 0.125 13.9844 0.125 13V2.5ZM7.125 4.25V0.75L10.625 4.25H7.125ZM15.875 10.8125C15.875 13 14.0977 14.75 11.9375 14.75C9.75 14.75 8 13 8 10.8125C8 8.65234 9.75 6.875 11.9375 6.875C14.0977 6.875 15.875 8.65234 15.875 10.8125ZM13.1406 9.63672L11.5 11.3047L10.707 10.5117C10.543 10.3477 10.2422 10.3477 10.0781 10.5117C9.91406 10.6758 9.91406 10.9766 10.0781 11.1406L11.1719 12.2344C11.3359 12.3984 11.6367 12.3984 11.8008 12.2344L13.7695 10.2656C13.9336 10.1016 13.9336 9.80078 13.7695 9.63672C13.6055 9.47266 13.3047 9.47266 13.1406 9.63672Z" fill="white"/>
</svg>
