<svg width="33" height="33" viewBox="0 0 33 33" fill="none" xmlns="http://www.w3.org/2000/svg">
<path d="M30.9375 2.06249C30.9375 1.23114 30.4348 0.477117 29.6613 0.154886C28.8879 -0.167344 28.0049 0.0131047 27.4119 0.599564L24.6018 3.41586C21.508 6.50927 17.3121 8.24932 12.9357 8.24932H12.375H10.3125H4.125C1.8498 8.24932 0 10.0989 0 12.3739V18.5607C0 20.8356 1.8498 22.6852 4.125 22.6852V30.9344C4.125 32.075 5.04668 32.9966 6.1875 32.9966H10.3125C11.4533 32.9966 12.375 32.075 12.375 30.9344V22.6852H12.9357C17.3121 22.6852 21.508 24.4253 24.6018 27.5187L27.4119 30.3286C28.0049 30.9215 28.8879 31.0955 29.6613 30.7732C30.4348 30.451 30.9375 29.7034 30.9375 28.8656V19.3598C32.1363 18.7927 33 17.2653 33 15.4673C33 13.6692 32.1363 12.1419 30.9375 11.5747V2.06249ZM26.8125 7.00551V15.4673V23.9291C23.0227 20.4812 18.0791 18.5607 12.9357 18.5607H12.375V12.3739H12.9357C18.0791 12.3739 23.0227 10.4534 26.8125 7.00551Z" fill="white"/>
</svg>
