<svg width="21" height="21" viewBox="0 0 21 21" fill="none" xmlns="http://www.w3.org/2000/svg">
<path d="M11.1312 4.37764L9.84844 4.37502C6.92244 4.36802 4.38231 6.74539 4.36219 9.62502V12.9413C4.36219 13.6325 4.27469 14.3071 3.89756 14.882L3.64643 15.2653C3.26406 15.8463 3.67531 16.625 4.36219 16.625H16.6384C17.3253 16.625 17.7357 15.8463 17.3542 15.2653L17.1031 14.882C16.7268 14.3071 16.6384 13.6316 16.6384 12.9404V9.62589C16.6034 6.74539 14.0572 4.38464 11.1312 4.37764V4.37764Z" stroke="#BEDEFD" stroke-width="1.5" stroke-linecap="round" stroke-linejoin="round"/>
<path d="M13.125 16.625C13.125 17.3212 12.8484 17.9889 12.3562 18.4812C11.8639 18.9734 11.1962 19.25 10.5 19.25C9.80381 19.25 9.13613 18.9734 8.64384 18.4812C8.15156 17.9889 7.875 17.3212 7.875 16.625" stroke="#BEDEFD" stroke-width="1.5" stroke-linecap="round" stroke-linejoin="round"/>
<path d="M10.5 1.75C10.9641 1.75 11.4092 1.93437 11.7374 2.26256C12.0656 2.59075 12.25 3.03587 12.25 3.5V4.375H8.75V3.5C8.75 3.03587 8.93437 2.59075 9.26256 2.26256C9.59075 1.93437 10.0359 1.75 10.5 1.75Z" stroke="#BEDEFD" stroke-width="1.5" stroke-linecap="round" stroke-linejoin="round"/>
</svg>
