<svg width="8" height="8" viewBox="0 0 8 8" fill="none" xmlns="http://www.w3.org/2000/svg">
<path d="M4 0C1.78125 0 0 1.79688 0 4C0 6.21875 1.78125 8 4 8C6.20312 8 8 6.21875 8 4C8 1.79688 6.20312 0 4 0ZM4 7.25C2.20312 7.25 0.75 5.79688 0.75 4C0.75 2.21875 2.20312 0.75 4 0.75C5.78125 0.75 7.25 2.21875 7.25 4C7.25 5.79688 5.78125 7.25 4 7.25ZM4.625 5.25H4.375V3.875C4.375 3.67188 4.20312 3.5 4 3.5H3.5C3.28125 3.5 3.125 3.67188 3.125 3.875C3.125 4.09375 3.28125 4.25 3.5 4.25H3.625V5.25H3.375C3.15625 5.25 3 5.42188 3 5.625C3 5.84375 3.15625 6 3.375 6H4.625C4.82812 6 5 5.84375 5 5.625C5 5.42188 4.82812 5.25 4.625 5.25ZM4 3C4.26562 3 4.5 2.78125 4.5 2.5C4.5 2.23438 4.26562 2 4 2C3.71875 2 3.5 2.23438 3.5 2.5C3.5 2.78125 3.71875 3 4 3Z" fill="#2563EB"/>
</svg>
