<svg width="16" height="17" viewBox="0 0 16 17" fill="none" xmlns="http://www.w3.org/2000/svg">
<rect x="0.5" y="1" width="15" height="15" rx="3.5" fill="white"/>
<path d="M10 6V4.5H8.25C7.82812 4.5 7.5 4.84375 7.5 5.25V9.75C7.5 10.1719 7.82812 10.5 8.25 10.5H11.25C11.6562 10.5 12 10.1719 12 9.75V6.5H10.5C10.2188 6.5 10 6.28125 10 6ZM10.5 4.5V6H12L10.5 4.5ZM7 10V6.5H4.75C4.32812 6.5 4 6.84375 4 7.25V11.75C4 12.1719 4.32812 12.5 4.75 12.5H7.75C8.15625 12.5 8.5 12.1719 8.5 11.75V11H8C7.4375 11 7 10.5625 7 10Z" fill="#607D8B"/>
<rect x="0.5" y="1" width="15" height="15" rx="3.5" stroke="#607D8B"/>
</svg>
