<svg width="12" height="14" viewBox="0 0 12 14" fill="none" xmlns="http://www.w3.org/2000/svg">
<path d="M4.17188 2.25H7.82812V1.23438C7.82812 0.904297 8.08203 0.625 8.4375 0.625C8.76758 0.625 9.04688 0.904297 9.04688 1.23438V2.25H10.0625C10.9512 2.25 11.6875 2.98633 11.6875 3.875V12C11.6875 12.9141 10.9512 13.625 10.0625 13.625H1.9375C1.02344 13.625 0.3125 12.9141 0.3125 12V3.875C0.3125 2.98633 1.02344 2.25 1.9375 2.25H2.95312V1.23438C2.95312 0.904297 3.20703 0.625 3.5625 0.625C3.89258 0.625 4.17188 0.904297 4.17188 1.23438V2.25ZM1.53125 12C1.53125 12.2285 1.70898 12.4062 1.9375 12.4062H10.0625C10.2656 12.4062 10.4688 12.2285 10.4688 12V5.5H1.53125V12Z" fill="#455A64"/>
</svg>
