<svg width="12" height="12" viewBox="0 0 12 12" fill="none" xmlns="http://www.w3.org/2000/svg">
<rect x="0.5" y="0.5" width="11" height="11" rx="5.5" fill="#EFF6FF"/>
<path d="M8.34375 7.65625C8.54688 7.84375 8.54688 8.17188 8.34375 8.35938C8.25 8.45312 8.125 8.5 8 8.5C7.85938 8.5 7.73438 8.45312 7.64062 8.35938L6 6.71875L4.34375 8.35938C4.25 8.45312 4.125 8.5 4 8.5C3.85938 8.5 3.73438 8.45312 3.64062 8.35938C3.4375 8.17188 3.4375 7.84375 3.64062 7.65625L5.28125 6L3.64062 4.35938C3.4375 4.17188 3.4375 3.84375 3.64062 3.65625C3.82812 3.45312 4.15625 3.45312 4.34375 3.65625L6 5.29688L7.64062 3.65625C7.82812 3.45312 8.15625 3.45312 8.34375 3.65625C8.54688 3.84375 8.54688 4.17188 8.34375 4.35938L6.70312 6.01562L8.34375 7.65625Z" fill="#546E7A"/>
<rect x="0.5" y="0.5" width="11" height="11" rx="5.5" stroke="#546E7A"/>
</svg>
