<svg width="33" height="28" viewBox="0 0 33 28" fill="none" xmlns="http://www.w3.org/2000/svg">
<path d="M17 0C8.125 0 1 5.8125 1 13C1 15.9375 2.25 18.6875 4.3125 20.875C3.375 23.3125 1.4375 25.4375 1.4375 25.4375C1 25.875 0.9375 26.5 1.125 27.0625C1.3125 27.6875 1.875 28 2.5 28C6.3125 28 9.3125 26.4375 11.1875 25.125C12.9375 25.6875 14.9375 26 17 26C25.8125 26 32.9375 20.1875 32.9375 13.0625C32.9375 5.9375 25.8125 0 17 0ZM17 23C15.3125 23 13.625 22.75 12.0625 22.25L10.625 21.8125L9.4375 22.6875C8.5625 23.3125 7.3125 24 5.8125 24.5C6.3125 23.75 6.75 22.875 7.0625 22L7.75 20.25L6.4375 18.875C5.3125 17.6875 4 15.6875 4 13C4 7.5 9.8125 3 16.9375 3C24.0625 3 29.875 7.5 29.875 13C29.875 18.5625 24.125 23 17 23ZM17 17C15.875 17 15 17.9375 15 19C15 20.125 15.875 21 17 21C18.0625 21 19 20.125 19 19C19 17.9375 18.0625 17 17 17ZM17 15C17.8125 15 18.5 14.375 18.5 13.5V6.5C18.5 5.6875 17.8125 5 17 5C16.125 5 15.5 5.6875 15.5 6.5V13.5C15.5 14.375 16.125 15 17 15Z" fill="#37474F"/>
</svg>
