<svg width="12" height="12" viewBox="0 0 12 12" fill="none" xmlns="http://www.w3.org/2000/svg">
<path fill-rule="evenodd" clip-rule="evenodd" d="M1.16641 0.750243C1.47883 0.437821 1.99592 0.448372 2.32136 0.773809L11.7494 10.2019C12.0749 10.5273 12.0854 11.0444 11.773 11.3568C11.4606 11.6693 10.9435 11.6587 10.6181 11.3333L1.18998 1.90519C0.864542 1.57975 0.853991 1.06266 1.16641 0.750243Z" fill="#37474F"/>
<path fill-rule="evenodd" clip-rule="evenodd" d="M0.797897 11.2502C0.485476 10.9378 0.496027 10.4207 0.821464 10.0953L10.2496 0.667167C10.575 0.34173 11.0921 0.331178 11.4045 0.6436C11.7169 0.956021 11.7064 1.47311 11.3809 1.79855L1.95284 11.2266C1.62741 11.5521 1.11032 11.5626 0.797897 11.2502Z" fill="#37474F"/>
</svg>
