<svg width="12" height="12" viewBox="0 0 12 12" fill="none" xmlns="http://www.w3.org/2000/svg">
<path fill-rule="evenodd" clip-rule="evenodd" d="M0.933991 0.564696C1.24641 0.252274 1.7635 0.262825 2.08894 0.588262L11.517 10.0164C11.8425 10.3418 11.853 10.8589 11.5406 11.1713C11.2282 11.4837 10.7111 11.4732 10.3856 11.1477L0.957557 1.71964C0.63212 1.3942 0.621569 0.877117 0.933991 0.564696Z" fill="#37474F"/>
<path fill-rule="evenodd" clip-rule="evenodd" d="M0.565475 11.0647C0.253054 10.7522 0.263605 10.2351 0.589042 9.90971L10.0171 0.48162C10.3426 0.156184 10.8597 0.145632 11.1721 0.458053C11.4845 0.770474 11.4739 1.28756 11.1485 1.613L1.72042 11.0411C1.39498 11.3665 0.877897 11.3771 0.565475 11.0647Z" fill="#37474F"/>
</svg>
