<svg width="17" height="17" viewBox="0 0 17 17" fill="none" xmlns="http://www.w3.org/2000/svg">
<path d="M8.5 16.78C12.8493 16.78 16.375 13.073 16.375 8.5C16.375 3.92709 12.8493 0.220001 8.5 0.220001C4.15076 0.220001 0.625 3.92709 0.625 8.5C0.625 13.073 4.15076 16.78 8.5 16.78Z" fill="white"/>
<path fill-rule="evenodd" clip-rule="evenodd" d="M11.589 5.2521C11.8453 5.52156 11.8453 5.95845 11.589 6.22788L6.33904 11.7479C6.08276 12.0173 5.66724 12.0173 5.41096 11.7479C5.15468 11.4784 5.15468 11.0416 5.41096 10.7721L10.661 5.2521C10.9173 4.98264 11.3327 4.98264 11.589 5.2521Z" fill="#3B82F6"/>
<path fill-rule="evenodd" clip-rule="evenodd" d="M5.41096 5.2521C5.66724 4.98264 6.08276 4.98264 6.33904 5.2521L11.589 10.7721C11.8453 11.0416 11.8453 11.4784 11.589 11.7479C11.3327 12.0173 10.9173 12.0173 10.661 11.7479L5.41096 6.22788C5.15468 5.95845 5.15468 5.52156 5.41096 5.2521Z" fill="#3B82F6"/>
</svg>
