<svg width="12" height="13" viewBox="0 0 12 13" fill="none" xmlns="http://www.w3.org/2000/svg">
<path d="M6 0.5C2.67188 0.5 0 3.19531 0 6.5C0 9.82812 2.67188 12.5 6 12.5C9.30469 12.5 12 9.82812 12 6.5C12 3.19531 9.30469 0.5 6 0.5ZM6 11.375C3.30469 11.375 1.125 9.19531 1.125 6.5C1.125 3.82812 3.30469 1.625 6 1.625C8.67188 1.625 10.875 3.82812 10.875 6.5C10.875 9.19531 8.67188 11.375 6 11.375ZM8.41406 3.64062C8.17969 3.45312 7.82812 3.47656 7.61719 3.71094L6 5.63281L4.35938 3.71094C4.14844 3.47656 3.79688 3.45312 3.5625 3.64062C3.32812 3.85156 3.30469 4.20312 3.49219 4.4375L5.25 6.5L3.49219 8.58594C3.30469 8.82031 3.32812 9.17188 3.5625 9.38281C3.67969 9.47656 3.79688 9.5 3.91406 9.5C4.05469 9.5 4.21875 9.45312 4.33594 9.3125L6 7.39062L7.61719 9.3125C7.73438 9.45312 7.89844 9.5 8.0625 9.5C8.17969 9.5 8.29688 9.47656 8.41406 9.38281C8.64844 9.17188 8.67188 8.82031 8.48438 8.58594L6.72656 6.5L8.48438 4.4375C8.67188 4.20312 8.64844 3.85156 8.41406 3.64062Z" fill="#4086E7"/>
</svg>
