<svg width="9" height="11" viewBox="0 0 9 11" fill="none" xmlns="http://www.w3.org/2000/svg">
<path d="M7.625 0.25H1.375C0.671875 0.25 0.125 0.816406 0.125 1.5V9C0.125 9.70312 0.671875 10.25 1.375 10.25H7.625C8.30859 10.25 8.875 9.70312 8.875 9V1.5C8.875 0.816406 8.30859 0.25 7.625 0.25ZM1.375 2.4375C1.375 2.28125 1.51172 2.125 1.6875 2.125H2.3125C2.46875 2.125 2.625 2.28125 2.625 2.4375V3.0625C2.625 3.23828 2.46875 3.375 2.3125 3.375H1.6875C1.51172 3.375 1.375 3.23828 1.375 3.0625V2.4375ZM2.625 8.0625C2.625 8.23828 2.46875 8.375 2.3125 8.375H1.6875C1.51172 8.375 1.375 8.23828 1.375 8.0625V7.4375C1.375 7.28125 1.51172 7.125 1.6875 7.125H2.3125C2.46875 7.125 2.625 7.28125 2.625 7.4375V8.0625ZM3.30859 4.70312L2.21484 5.79688C2.15625 5.85547 2.07812 5.875 2 5.875C1.90234 5.875 1.82422 5.85547 1.76562 5.79688L1.29688 5.32812C1.17969 5.21094 1.17969 4.99609 1.29688 4.87891C1.41406 4.76172 1.62891 4.76172 1.74609 4.87891L2 5.13281L2.85938 4.25391C2.97656 4.13672 3.19141 4.13672 3.30859 4.25391C3.42578 4.37109 3.42578 4.58594 3.30859 4.70312ZM7.3125 8.0625H4.1875C4.01172 8.0625 3.875 7.92578 3.875 7.75C3.875 7.59375 4.01172 7.4375 4.1875 7.4375H7.3125C7.46875 7.4375 7.625 7.59375 7.625 7.75C7.625 7.92578 7.46875 8.0625 7.3125 8.0625ZM7.3125 5.5625H4.1875C4.01172 5.5625 3.875 5.42578 3.875 5.25C3.875 5.09375 4.01172 4.9375 4.1875 4.9375H7.3125C7.46875 4.9375 7.625 5.09375 7.625 5.25C7.625 5.42578 7.46875 5.5625 7.3125 5.5625ZM7.3125 3.0625H4.1875C4.01172 3.0625 3.875 2.92578 3.875 2.75C3.875 2.59375 4.01172 2.4375 4.1875 2.4375H7.3125C7.46875 2.4375 7.625 2.59375 7.625 2.75C7.625 2.92578 7.46875 3.0625 7.3125 3.0625Z" fill="#607D8B"/>
</svg>
