<svg width="17" height="14" viewBox="0 0 17 14" fill="none" xmlns="http://www.w3.org/2000/svg">
<path d="M9 0C4.5625 0 1 2.90625 1 6.5C1 7.96875 1.625 9.34375 2.65625 10.4375C2.1875 11.6562 1.21875 12.7188 1.21875 12.7188C1 12.9375 0.96875 13.25 1.0625 13.5312C1.15625 13.8438 1.4375 14 1.75 14C3.65625 14 5.15625 13.2188 6.09375 12.5625C6.96875 12.8438 7.96875 13 9 13C13.4062 13 16.9688 10.0938 16.9688 6.53125C16.9688 2.96875 13.4062 0 9 0ZM9 11.5C8.15625 11.5 7.3125 11.375 6.53125 11.125L5.8125 10.9062L5.21875 11.3438C4.78125 11.6562 4.15625 12 3.40625 12.25C3.65625 11.875 3.875 11.4375 4.03125 11L4.375 10.125L3.71875 9.4375C3.15625 8.84375 2.5 7.84375 2.5 6.5C2.5 3.75 5.40625 1.5 8.96875 1.5C12.5312 1.5 15.4375 3.75 15.4375 6.5C15.4375 9.28125 12.5625 11.5 9 11.5ZM9 8.5C8.4375 8.5 8 8.96875 8 9.5C8 10.0625 8.4375 10.5 9 10.5C9.53125 10.5 10 10.0625 10 9.5C10 8.96875 9.53125 8.5 9 8.5ZM9 7.5C9.40625 7.5 9.75 7.1875 9.75 6.75V3.25C9.75 2.84375 9.40625 2.5 9 2.5C8.5625 2.5 8.25 2.84375 8.25 3.25V6.75C8.25 7.1875 8.5625 7.5 9 7.5Z" fill="#37474F"/>
</svg>
