<svg width="8" height="8" viewBox="0 0 8 8" fill="none" xmlns="http://www.w3.org/2000/svg">
<path d="M3.79688 5.3125C3.625 5.48438 3.35938 5.48438 3.1875 5.3125L2.1875 4.3125C2.01562 4.14062 2.01562 3.875 2.1875 3.70312C2.35938 3.53125 2.625 3.53125 2.79688 3.70312L3.5 4.39062L5.1875 2.70312C5.35938 2.53125 5.625 2.53125 5.79688 2.70312C5.96875 2.875 5.96875 3.14062 5.79688 3.3125L3.79688 5.3125ZM8 4C8 6.21875 6.20312 8 4 8C1.78125 8 0 6.21875 0 4C0 1.79688 1.78125 0 4 0C6.20312 0 8 1.79688 8 4ZM4 0.75C2.20312 0.75 0.75 2.21875 0.75 4C0.75 5.79688 2.20312 7.25 4 7.25C5.78125 7.25 7.25 5.79688 7.25 4C7.25 2.21875 5.78125 0.75 4 0.75Z" fill="white"/>
</svg>
