<svg width="9" height="13" viewBox="0 0 9 13" fill="none" xmlns="http://www.w3.org/2000/svg">
<path d="M4.5 8.5625C4.80469 8.5625 5.0625 8.32812 5.0625 8C5.0625 7.69531 4.80469 7.4375 4.5 7.4375C4.17188 7.4375 3.9375 7.69531 3.9375 8C3.9375 8.32812 4.17188 8.5625 4.5 8.5625ZM4.5 6.5C4.80469 6.5 5.0625 6.26562 5.0625 5.9375C5.0625 5.63281 4.80469 5.375 4.5 5.375C4.17188 5.375 3.9375 5.63281 3.9375 5.9375C3.9375 6.26562 4.17188 6.5 4.5 6.5ZM6.5625 8.5625C6.86719 8.5625 7.125 8.32812 7.125 8C7.125 7.69531 6.86719 7.4375 6.5625 7.4375C6.23438 7.4375 6 7.69531 6 8C6 8.32812 6.23438 8.5625 6.5625 8.5625ZM6.5625 6.5C6.86719 6.5 7.125 6.26562 7.125 5.9375C7.125 5.63281 6.86719 5.375 6.5625 5.375C6.23438 5.375 6 5.63281 6 5.9375C6 6.26562 6.23438 6.5 6.5625 6.5ZM6.5625 10.625C6.86719 10.625 7.125 10.3906 7.125 10.0625C7.125 9.75781 6.86719 9.5 6.5625 9.5C6.23438 9.5 6 9.75781 6 10.0625C6 10.3906 6.23438 10.625 6.5625 10.625ZM2.4375 10.625H4.3125C4.61719 10.625 4.875 10.3906 4.875 10.0625C4.875 9.75781 4.61719 9.5 4.3125 9.5H2.4375C2.10938 9.5 1.875 9.75781 1.875 10.0625C1.875 10.3906 2.10938 10.625 2.4375 10.625ZM7.5 0.5H1.5C0.65625 0.5 0 1.17969 0 2V11C0 11.8438 0.65625 12.5 1.5 12.5H7.5C8.32031 12.5 9 11.8438 9 11V2C9 1.17969 8.32031 0.5 7.5 0.5ZM7.875 11C7.875 11.2109 7.6875 11.375 7.5 11.375H1.5C1.28906 11.375 1.125 11.2109 1.125 11V4.625H7.875V11ZM7.875 3.5H1.125V2C1.125 1.8125 1.28906 1.625 1.5 1.625H7.5C7.6875 1.625 7.875 1.8125 7.875 2V3.5ZM2.4375 6.5C2.74219 6.5 3 6.26562 3 5.9375C3 5.63281 2.74219 5.375 2.4375 5.375C2.10938 5.375 1.875 5.63281 1.875 5.9375C1.875 6.26562 2.10938 6.5 2.4375 6.5ZM2.4375 8.5625C2.74219 8.5625 3 8.32812 3 8C3 7.69531 2.74219 7.4375 2.4375 7.4375C2.10938 7.4375 1.875 7.69531 1.875 8C1.875 8.32812 2.10938 8.5625 2.4375 8.5625Z" fill="#607D8B"/>
</svg>
