<svg width="32" height="32" viewBox="0 0 32 32" fill="none" xmlns="http://www.w3.org/2000/svg">
<path d="M16 28C22.6274 28 28 22.6274 28 16C28 9.37258 22.6274 4 16 4C9.37258 4 4 9.37258 4 16C4 22.6274 9.37258 28 16 28Z" fill="#78909C"/>
<path fill-rule="evenodd" clip-rule="evenodd" d="M20.7071 11.2929C21.0976 11.6834 21.0976 12.3166 20.7071 12.7071L12.7071 20.7071C12.3166 21.0976 11.6834 21.0976 11.2929 20.7071C10.9024 20.3166 10.9024 19.6834 11.2929 19.2929L19.2929 11.2929C19.6834 10.9024 20.3166 10.9024 20.7071 11.2929Z" fill="white"/>
<path fill-rule="evenodd" clip-rule="evenodd" d="M11.2929 11.2929C11.6834 10.9024 12.3166 10.9024 12.7071 11.2929L20.7071 19.2929C21.0976 19.6834 21.0976 20.3166 20.7071 20.7071C20.3166 21.0976 19.6834 21.0976 19.2929 20.7071L11.2929 12.7071C10.9024 12.3166 10.9024 11.6834 11.2929 11.2929Z" fill="white"/>
</svg>
