<svg width="24" height="25" viewBox="0 0 24 25" fill="none" xmlns="http://www.w3.org/2000/svg">
<path d="M12 21.5C16.9706 21.5 21 17.4706 21 12.5C21 7.52944 16.9706 3.5 12 3.5C7.02944 3.5 3 7.52944 3 12.5C3 17.4706 7.02944 21.5 12 21.5Z" fill="white"/>
<path fill-rule="evenodd" clip-rule="evenodd" d="M15.5303 8.96967C15.8232 9.26256 15.8232 9.73744 15.5303 10.0303L9.53033 16.0303C9.23744 16.3232 8.76256 16.3232 8.46967 16.0303C8.17678 15.7374 8.17678 15.2626 8.46967 14.9697L14.4697 8.96967C14.7626 8.67678 15.2374 8.67678 15.5303 8.96967Z" fill="#34D399"/>
<path fill-rule="evenodd" clip-rule="evenodd" d="M8.46967 8.96967C8.76256 8.67678 9.23744 8.67678 9.53033 8.96967L15.5303 14.9697C15.8232 15.2626 15.8232 15.7374 15.5303 16.0303C15.2374 16.3232 14.7626 16.3232 14.4697 16.0303L8.46967 10.0303C8.17678 9.73744 8.17678 9.26256 8.46967 8.96967Z" fill="#34D399"/>
</svg>
