<svg width="32" height="32" viewBox="0 0 32 32" fill="none" xmlns="http://www.w3.org/2000/svg">
<path d="M28 16C28 22.6274 22.6274 28 16 28C9.37258 28 4 22.6274 4 16C4 9.37258 9.37258 4 16 4C22.6274 4 28 9.37258 28 16Z" fill="white"/>
<path fill-rule="evenodd" clip-rule="evenodd" d="M16 9.99986C16.5523 9.99986 17 10.4476 17 10.9999V16.9999C17 17.5521 16.5523 17.9999 16 17.9999C15.4477 17.9999 15 17.5521 15 16.9999V10.9999C15 10.4476 15.4477 9.99986 16 9.99986Z" fill="#EF5350"/>
<path fill-rule="evenodd" clip-rule="evenodd" d="M15 21.0001C15 20.4479 15.4477 20.0001 16 20.0001H16.0133C16.5656 20.0001 17.0133 20.4479 17.0133 21.0001C17.0133 21.5524 16.5656 22.0001 16.0133 22.0001H16C15.4477 22.0001 15 21.5524 15 21.0001Z" fill="#EF5350"/>
</svg>
