<svg width="8" height="11" viewBox="0 0 8 11" fill="none" xmlns="http://www.w3.org/2000/svg">
<path d="M7.75 2.75H5.25V0.25L7.75 2.75ZM5.25 3.375H7.75V9.3125C7.75 9.83984 7.32031 10.25 6.8125 10.25H1.1875C0.660156 10.25 0.25 9.83984 0.25 9.3125V1.1875C0.25 0.679688 0.660156 0.25 1.1875 0.25H4.625V2.75C4.625 3.10156 4.89844 3.375 5.25 3.375ZM5.23047 6.01172L4.46875 6.79297V4.78125C4.46875 4.52734 4.25391 4.3125 4 4.3125C3.72656 4.3125 3.53125 4.52734 3.53125 4.78125V6.79297L2.75 6.01172C2.67188 5.93359 2.55469 5.875 2.4375 5.875C2.30078 5.875 2.18359 5.93359 2.10547 6.01172C1.91016 6.20703 1.91016 6.5 2.10547 6.67578L3.66797 8.23828C3.84375 8.43359 4.13672 8.43359 4.3125 8.23828L5.875 6.67578C6.07031 6.5 6.07031 6.20703 5.875 6.01172C5.69922 5.83594 5.40625 5.83594 5.23047 6.01172Z" fill="#607D8B"/>
</svg>
