<svg width="14" height="15" viewBox="0 0 14 15" fill="none" xmlns="http://www.w3.org/2000/svg">
<path d="M13.125 10.375H9.46094L8.23047 11.6328C7.90234 11.9609 7.46484 12.125 7 12.125C6.50781 12.125 6.07031 11.9609 5.74219 11.6328L4.51172 10.375H0.875C0.382812 10.375 0 10.7852 0 11.25V13.875C0 14.3672 0.382812 14.75 0.875 14.75H13.125C13.5898 14.75 14 14.3672 14 13.875V11.25C14 10.7852 13.5898 10.375 13.125 10.375ZM11.8125 13.2188C11.4297 13.2188 11.1562 12.9453 11.1562 12.5625C11.1562 12.207 11.4297 11.9062 11.8125 11.9062C12.168 11.9062 12.4688 12.207 12.4688 12.5625C12.4688 12.9453 12.168 13.2188 11.8125 13.2188ZM6.37109 11.0039C6.53516 11.168 6.75391 11.25 7 11.25C7.21875 11.25 7.4375 11.168 7.60156 11.0039L11.1016 7.50391C11.457 7.17578 11.457 6.60156 11.1016 6.27344C10.7734 5.91797 10.1992 5.91797 9.87109 6.27344L7.875 8.26953V1.625C7.875 1.16016 7.46484 0.75 7 0.75C6.50781 0.75 6.125 1.16016 6.125 1.625V8.26953L4.10156 6.27344C3.77344 5.91797 3.19922 5.91797 2.87109 6.27344C2.51562 6.60156 2.51562 7.17578 2.87109 7.50391L6.37109 11.0039Z" fill="#4086E7"/>
</svg>
