<svg width="13" height="13" viewBox="0 0 13 13" fill="none" xmlns="http://www.w3.org/2000/svg">
<path d="M3.9375 0.625C4.64844 0.625 5.25 1.22656 5.25 1.9375V6.3125C5.25 7.05078 4.64844 7.625 3.9375 7.625H1.3125C0.574219 7.625 0 7.05078 0 6.3125V1.9375C0 1.22656 0.574219 0.625 1.3125 0.625H3.9375ZM10.9375 5.875C11.6484 5.875 12.25 6.47656 12.25 7.1875V11.5625C12.25 12.3008 11.6484 12.875 10.9375 12.875H8.3125C7.57422 12.875 7 12.3008 7 11.5625V7.1875C7 6.47656 7.57422 5.875 8.3125 5.875H10.9375ZM0 10.6875C0 9.97656 0.574219 9.375 1.3125 9.375H3.9375C4.64844 9.375 5.25 9.97656 5.25 10.6875V11.5625C5.25 12.3008 4.64844 12.875 3.9375 12.875H1.3125C0.574219 12.875 0 12.3008 0 11.5625V10.6875ZM10.9375 0.625C11.6484 0.625 12.25 1.22656 12.25 1.9375V2.8125C12.25 3.55078 11.6484 4.125 10.9375 4.125H8.3125C7.57422 4.125 7 3.55078 7 2.8125V1.9375C7 1.22656 7.57422 0.625 8.3125 0.625H10.9375Z" fill="#455A64"/>
</svg>
