<svg width="17" height="15" viewBox="0 0 17 15" fill="none" xmlns="http://www.w3.org/2000/svg">
<path d="M16.5312 9.03516L14.3438 6.84766C14.0703 6.60156 13.6602 6.60156 13.4141 6.84766C13.1406 7.12109 13.1406 7.53125 13.4141 7.77734L14.5078 8.84375H6.90625C6.52344 8.84375 6.25 9.14453 6.25 9.5C6.25 9.88281 6.52344 10.1562 6.90625 10.1562H14.5078L13.4414 11.25C13.3047 11.3594 13.25 11.5234 13.25 11.6875C13.25 11.8789 13.3047 12.043 13.4414 12.1523C13.6875 12.4258 14.0977 12.4258 14.3438 12.1523L16.5312 9.96484C16.8047 9.71875 16.8047 9.30859 16.5312 9.03516ZM10.8438 11.25C10.4609 11.25 10.1875 11.5508 10.1875 11.9062V13C10.1875 13.2461 9.96875 13.4375 9.75 13.4375H2.75C2.50391 13.4375 2.3125 13.2461 2.3125 13V2.52734C2.3125 2.28125 2.50391 2.08984 2.75 2.08984H7.125V4.25C7.125 4.74219 7.50781 5.125 8 5.125H10.1602V7.09375C10.1602 7.47656 10.4336 7.75 10.7891 7.75C11.1172 7.75 11.5 7.47656 11.5 7.09375V4.55078C11.5 4.08594 11.3086 3.64844 10.9805 3.32031L8.92969 1.26953C8.60156 0.941406 8.16406 0.75 7.69922 0.75H2.72266C1.76562 0.75 0.972656 1.54297 1 2.5V13C1 13.9844 1.76562 14.75 2.75 14.75H9.75C10.707 14.75 11.5 13.9844 11.5 13V11.9062C11.5 11.5508 11.1992 11.25 10.8438 11.25Z" fill="#DA9F47"/>
</svg>
