<svg width="14" height="11" viewBox="0 0 14 11" fill="none" xmlns="http://www.w3.org/2000/svg">
<path d="M8.47656 0.5C9.10547 0.5 9.625 1.01953 9.625 1.64844C9.625 1.92188 9.51562 2.19531 9.29688 2.41406L6.75391 5.14844V10.125C6.75391 10.6172 6.37109 11 5.87891 11C5.6875 11 5.52344 10.9727 5.38672 10.8633L3.30859 9.49609C3.00781 9.30469 2.84375 8.94922 2.84375 8.59375V5.14844L0.300781 2.41406C0.0820312 2.19531 0 1.92188 0 1.64844C0 1.01953 0.492188 0.5 1.12109 0.5H8.47656ZM4.12891 4.875V8.48438L5.44141 9.33203V4.875C5.44141 4.71094 5.52344 4.57422 5.63281 4.4375L8.06641 1.8125H1.53125L3.96484 4.4375C4.07422 4.57422 4.12891 4.71094 4.12891 4.875ZM13.3438 9.46875C13.6992 9.46875 14 9.76953 14 10.125C14 10.5078 13.6992 10.7812 13.3438 10.7812H9.40625C9.02344 10.7812 8.75 10.5078 8.75 10.125C8.75 9.76953 9.02344 9.46875 9.40625 9.46875H13.3438ZM8.75 5.75C8.75 5.39453 9.02344 5.09375 9.40625 5.09375H13.3438C13.6992 5.09375 14 5.39453 14 5.75C14 6.13281 13.6992 6.40625 13.3438 6.40625H9.40625C9.02344 6.40625 8.75 6.13281 8.75 5.75ZM13.3438 0.71875C13.6992 0.71875 14 1.01953 14 1.375C14 1.75781 13.6992 2.03125 13.3438 2.03125H11.1562C10.7734 2.03125 10.5 1.75781 10.5 1.375C10.5 1.01953 10.7734 0.71875 11.1562 0.71875H13.3438Z" fill="#455A64"/>
</svg>
