<svg width="14" height="10" viewBox="0 0 14 10" fill="none" xmlns="http://www.w3.org/2000/svg">
<path d="M0 2C0 0.89543 0.89543 0 2 0H12C13.1046 0 14 0.89543 14 2V8C14 9.1046 13.1046 10 12 10H2C0.89543 10 0 9.1046 0 8V2ZM2 3V4C2 4.27614 2.22386 4.5 2.5 4.5C2.77614 4.5 3 4.27614 3 4V3H4C4.27614 3 4.5 2.77614 4.5 2.5C4.5 2.22386 4.27614 2 4 2H3C2.44772 2 2 2.44772 2 3ZM11 2H10C9.7239 2 9.5 2.22386 9.5 2.5C9.5 2.77614 9.7239 3 10 3H11V4C11 4.27614 11.2239 4.5 11.5 4.5C11.7761 4.5 12 4.27614 12 4V3C12 2.44772 11.5523 2 11 2ZM11 8C11.5523 8 12 7.5523 12 7V6C12 5.72386 11.7761 5.5 11.5 5.5C11.2239 5.5 11 5.72386 11 6V7H10C9.7239 7 9.5 7.2239 9.5 7.5C9.5 7.7761 9.7239 8 10 8H11ZM3 8H4C4.27614 8 4.5 7.7761 4.5 7.5C4.5 7.2239 4.27614 7 4 7H3V6C3 5.72386 2.77614 5.5 2.5 5.5C2.22386 5.5 2 5.72386 2 6V7C2 7.5523 2.44772 8 3 8Z" fill="#607D8B"/>
</svg>
