<svg width="13" height="12" viewBox="0 0 13 12" fill="none" xmlns="http://www.w3.org/2000/svg">
<path d="M0 1.50391C0 0.919922 0.457031 0.4375 1.04102 0.4375H11.9336C12.5176 0.4375 13 0.919922 13 1.50391C13 1.75781 12.8984 1.98633 12.7461 2.16406L8.53125 7.36914V11C8.53125 11.457 8.15039 11.8125 7.69336 11.8125C7.51562 11.8125 7.33789 11.7617 7.18555 11.6348L4.84961 9.78125C4.5957 9.57812 4.46875 9.29883 4.46875 8.99414V7.36914L0.228516 2.16406C0.0761719 1.98633 0 1.75781 0 1.50391ZM1.37109 1.65625L5.53516 6.75977C5.63672 6.88672 5.6875 7.01367 5.6875 7.14062V8.89258L7.3125 10.1875V7.14062C7.3125 7.01367 7.33789 6.88672 7.43945 6.75977L11.6035 1.65625H1.37109Z" fill="#607D8B"/>
</svg>
