<svg width="14" height="13" viewBox="0 0 14 13" fill="none" xmlns="http://www.w3.org/2000/svg">
<path d="M1.09375 8.96094C1.1875 8.63281 1.375 8.32812 1.60938 8.09375L8.73438 0.96875C9.32031 0.382812 10.2812 0.382812 10.8672 0.96875L11.7812 1.88281C11.8516 1.95312 11.9219 2.04688 11.9688 2.11719C12.3672 2.70312 12.2969 3.5 11.7812 4.01562L4.65625 11.1406C4.63281 11.1641 4.58594 11.1875 4.5625 11.2344C4.32812 11.4219 4.07031 11.5625 3.78906 11.6562L0.953125 12.4766C0.765625 12.5469 0.554688 12.5 0.414062 12.3359C0.25 12.1953 0.203125 11.9844 0.25 11.7969L1.09375 8.96094ZM1.63281 11.1172L3.46094 10.5781C3.60156 10.5312 3.74219 10.4609 3.85938 10.3438L9.22656 4.97656L7.75 3.52344L2.40625 8.89062C2.38281 8.89062 2.38281 8.91406 2.35938 8.9375C2.26562 9.03125 2.21875 9.14844 2.17188 9.28906L1.63281 11.1172ZM13.1875 11.375C13.4922 11.375 13.75 11.6328 13.75 11.9375C13.75 12.2656 13.4922 12.5 13.1875 12.5H6.0625C5.73438 12.5 5.5 12.2656 5.5 11.9375C5.5 11.6328 5.73438 11.375 6.0625 11.375H13.1875Z" fill="#607D8B"/>
</svg>
