<svg width="13" height="14" viewBox="0 0 13 14" fill="none" xmlns="http://www.w3.org/2000/svg">
<path d="M6.5 0.125C2.89453 0.125 0 3.04492 0 6.625C0 10.2305 2.89453 13.125 6.5 13.125C10.0801 13.125 13 10.2305 13 6.625C13 3.04492 10.0801 0.125 6.5 0.125ZM6.5 11.9062C3.58008 11.9062 1.21875 9.54492 1.21875 6.625C1.21875 3.73047 3.58008 1.34375 6.5 1.34375C9.39453 1.34375 11.7812 3.73047 11.7812 6.625C11.7812 9.54492 9.39453 11.9062 6.5 11.9062ZM7.51562 8.65625H7.10938V6.42188C7.10938 6.0918 6.83008 5.8125 6.5 5.8125H5.6875C5.33203 5.8125 5.07812 6.0918 5.07812 6.42188C5.07812 6.77734 5.33203 7.03125 5.6875 7.03125H5.89062V8.65625H5.48438C5.12891 8.65625 4.875 8.93555 4.875 9.26562C4.875 9.62109 5.12891 9.875 5.48438 9.875H7.51562C7.8457 9.875 8.125 9.62109 8.125 9.26562C8.125 8.93555 7.8457 8.65625 7.51562 8.65625ZM6.5 5C6.93164 5 7.3125 4.64453 7.3125 4.1875C7.3125 3.75586 6.93164 3.375 6.5 3.375C6.04297 3.375 5.6875 3.75586 5.6875 4.1875C5.6875 4.64453 6.04297 5 6.5 5Z" fill="#546E7A"/>
</svg>
