<svg width="32" height="33" viewBox="0 0 32 33" fill="none" xmlns="http://www.w3.org/2000/svg">
<path d="M28 16.5C28 23.1274 22.6274 28.5 16 28.5C9.37258 28.5 4 23.1274 4 16.5C4 9.87258 9.37258 4.5 16 4.5C22.6274 4.5 28 9.87258 28 16.5Z" fill="white"/>
<path fill-rule="evenodd" clip-rule="evenodd" d="M16 14.5001C16.5523 14.5001 17 14.9478 17 15.5001V21.5001C17 22.0524 16.5523 22.5001 16 22.5001C15.4477 22.5001 15 22.0524 15 21.5001V15.5001C15 14.9478 15.4477 14.5001 16 14.5001Z" fill="#60A5FA"/>
<path fill-rule="evenodd" clip-rule="evenodd" d="M15 11.4999C15 10.9476 15.4477 10.4999 16 10.4999H16.0148C16.5671 10.4999 17.0148 10.9476 17.0148 11.4999C17.0148 12.0522 16.5671 12.4999 16.0148 12.4999H16C15.4477 12.4999 15 12.0522 15 11.4999Z" fill="#60A5FA"/>
</svg>
