<svg width="11" height="11" viewBox="0 0 11 11" fill="none" xmlns="http://www.w3.org/2000/svg">
<path d="M10.2183 0.687378H0.781726C0.349543 0.687378 0 1.03692 0 1.4691C0 1.90129 0.349543 2.25083 0.781726 2.25083H10.2183C10.6505 2.25083 11 1.90129 11 1.4691C11 1.03692 10.6505 0.687378 10.2183 0.687378Z" fill="#DA9F47"/>
<path d="M11 6.84398C11 6.41179 10.6505 6.06226 10.2183 6.06226H0.781726C0.349543 6.06226 0 6.41179 0 6.84398C0 7.27615 0.349543 7.62571 0.781726 7.62571H10.2183C10.6505 7.62571 11 7.27504 11 6.84398Z" fill="#DA9F47"/>
<path d="M0.781726 4.93772H8.54762C8.97979 4.93772 9.32934 4.58818 9.32934 4.15599C9.32934 3.72381 8.97979 3.37427 8.54762 3.37427H0.781726C0.349543 3.37427 0 3.72381 0 4.15599C0 4.58818 0.349543 4.93772 0.781726 4.93772Z" fill="#DA9F47"/>
<path d="M6.61452 9.53087C6.61452 9.09868 6.26497 8.74915 5.83279 8.74915H0.781726C0.349543 8.74915 0 9.09868 0 9.53087C0 9.96304 0.349543 10.3126 0.781726 10.3126H5.83279C6.26497 10.3126 6.61452 9.96304 6.61452 9.53087Z" fill="#DA9F47"/>
</svg>
