<svg width="18" height="15" viewBox="0 0 18 15" fill="none" xmlns="http://www.w3.org/2000/svg">
<path d="M16.1875 8.625H15.75V6.57422C15.75 5.42578 14.9023 4.38672 13.7812 4.27734C12.4688 4.14062 11.375 5.17969 11.375 6.4375V8.625H10.9375C10.1992 8.625 9.625 9.22656 9.625 9.9375V13.4375C9.625 14.1758 10.1992 14.75 10.9375 14.75H16.1875C16.8984 14.75 17.5 14.1758 17.5 13.4375V9.9375C17.5 9.22656 16.8984 8.625 16.1875 8.625ZM13.5625 12.5625C13.0703 12.5625 12.6875 12.1797 12.6875 11.6875C12.6875 11.2227 13.0703 10.8125 13.5625 10.8125C14.0273 10.8125 14.4375 11.2227 14.4375 11.6875C14.4375 12.1797 14.0273 12.5625 13.5625 12.5625ZM14.4375 8.625H12.6875V6.4375C12.6875 5.97266 13.0703 5.5625 13.5625 5.5625C14.0273 5.5625 14.4375 5.97266 14.4375 6.4375V8.625ZM6.125 7.75C8.03906 7.75 9.625 6.19141 9.625 4.25C9.625 2.33594 8.03906 0.75 6.125 0.75C4.18359 0.75 2.625 2.33594 2.625 4.25C2.625 6.19141 4.18359 7.75 6.125 7.75ZM8.75 9.9375C8.75 9.71875 8.77734 9.5 8.85938 9.28125C8.42188 9.14453 7.95703 9.0625 7.49219 9.0625H4.73047C2.10547 9.0625 0 11.1953 0 13.8203C0 14.3398 0.410156 14.75 0.929688 14.75H9.1875C8.91406 14.3945 8.75 13.957 8.75 13.4375V9.9375Z" fill="#DA9F47"/>
</svg>
