<svg width="14" height="12" viewBox="0 0 14 12" fill="none" xmlns="http://www.w3.org/2000/svg">
<path d="M3.05664 4.00977C2.95508 4.11133 2.80273 4.1875 2.625 4.1875C2.47266 4.21289 2.29492 4.13672 2.19336 4.00977L1.17773 2.99414C0.923828 2.76562 0.923828 2.38477 1.17773 2.15625C1.40625 1.90234 1.78711 1.90234 2.01562 2.15625L2.59961 2.71484L3.99609 1.14062C4.22461 0.912109 4.60547 0.886719 4.85938 1.11523C5.08789 1.34375 5.11328 1.72461 4.88477 1.97852L3.05664 4.00977ZM3.05664 8.07227C2.95508 8.17383 2.80273 8.25 2.625 8.25C2.47266 8.27539 2.29492 8.19922 2.19336 8.07227L1.17773 7.05664C0.923828 6.82812 0.923828 6.44727 1.17773 6.19336C1.40625 5.96484 1.78711 5.96484 2.01562 6.19336L2.59961 6.77734L3.99609 5.20312C4.22461 4.97461 4.60547 4.94922 4.85938 5.17773C5.08789 5.38086 5.11328 5.78711 4.88477 6.04102L3.05664 8.07227ZM6.48438 3.17188C6.12891 3.17188 5.875 2.91797 5.875 2.5625C5.875 2.23242 6.12891 1.95312 6.48438 1.95312H13.3906C13.7207 1.95312 14 2.23242 14 2.5625C14 2.91797 13.7207 3.17188 13.3906 3.17188H6.48438ZM5.875 6.625C5.875 6.29492 6.12891 6.01562 6.48438 6.01562H13.3906C13.7207 6.01562 14 6.29492 14 6.625C14 6.98047 13.7207 7.23438 13.3906 7.23438H6.48438C6.12891 7.23438 5.875 6.98047 5.875 6.625ZM5.0625 10.6875C5.0625 10.3574 5.31641 10.0781 5.67188 10.0781H13.3906C13.7207 10.0781 14 10.3574 14 10.6875C14 11.043 13.7207 11.2969 13.3906 11.2969H5.67188C5.31641 11.2969 5.0625 11.043 5.0625 10.6875ZM2.625 11.5C2.16797 11.5 1.8125 11.1445 1.8125 10.6875C1.8125 10.2559 2.16797 9.875 2.625 9.875C3.05664 9.875 3.4375 10.2559 3.4375 10.6875C3.4375 11.1445 3.05664 11.5 2.625 11.5Z" fill="#546E7A"/>
</svg>
