<svg width="12" height="11" viewBox="0 0 12 11" fill="none" xmlns="http://www.w3.org/2000/svg">
<path d="M3.9375 9.625H2.25C1.61719 9.625 1.125 9.13281 1.125 8.5V2.5C1.125 1.89062 1.61719 1.375 2.25 1.375H3.9375C4.24219 1.375 4.5 1.14062 4.5 0.8125C4.5 0.507812 4.24219 0.25 3.9375 0.25H2.25C0.984375 0.25 0 1.25781 0 2.5V8.5C0 9.76562 0.984375 10.75 2.25 10.75H3.9375C4.24219 10.75 4.5 10.5156 4.5 10.1875C4.5 9.88281 4.24219 9.625 3.9375 9.625ZM11.7891 5.10156L8.22656 1.96094C7.99219 1.75 7.66406 1.70312 7.38281 1.82031C7.10156 1.96094 6.9375 2.21875 6.9375 2.52344V3.83594H4.125C3.58594 3.83594 3.1875 4.23438 3.1875 4.77344V6.27344C3.1875 6.78906 3.58594 7.21094 4.125 7.21094H6.9375V8.5C6.9375 8.80469 7.10156 9.0625 7.38281 9.20312C7.47656 9.25 7.59375 9.27344 7.71094 9.27344C7.89844 9.27344 8.08594 9.20312 8.22656 9.0625L11.7891 5.94531C11.9297 5.82812 12 5.6875 12 5.52344C12 5.35938 11.9297 5.21875 11.7891 5.10156ZM8.0625 7.70312V6.0625H4.3125V4.9375H8.0625V3.29688L10.5703 5.5L8.0625 7.70312Z" fill="#4086E7"/>
</svg>
