<svg width="16" height="17" viewBox="0 0 16 17" fill="none" xmlns="http://www.w3.org/2000/svg">
<path d="M14.5 1.56836H1.5C0.671562 1.56836 0 2.23992 0 3.06836V5.06836C0 5.61836 0.45 6.06836 0.971875 6.06836L1 13.5684C1 14.673 1.89531 15.5684 3 15.5684H13C14.1047 15.5684 15 14.673 15 13.5684V6.06836C15.55 6.06836 16 5.61836 16 5.09648V3.06836C16 2.23992 15.3281 1.56836 14.5 1.56836ZM13 14.0684H3C2.72384 14.0684 2.5 13.8445 2.5 13.5684V6.06836H13.5V13.5684C13.5 13.8434 13.275 14.0684 13 14.0684ZM14.5 4.56836H1.5V3.06836H14.5V4.56836ZM5.72188 9.06836H10.2219C10.6656 9.06836 11 8.73398 11 8.31836C11 7.90273 10.6656 7.56836 10.25 7.56836H5.72188C5.33438 7.56836 5 7.90273 5 8.29023C5 8.73398 5.33438 9.06836 5.72188 9.06836Z" fill="white" fill-opacity="0.72"/>
</svg>
