<svg width="16" height="14" viewBox="0 0 16 14" fill="none" xmlns="http://www.w3.org/2000/svg">
<path d="M14.5 0H1.5C0.671562 0 0 0.671562 0 1.5V3.5C0 4.05 0.45 4.5 0.971875 4.5L1 12C1 13.1047 1.89531 14 3 14H13C14.1047 14 15 13.1047 15 12V4.5C15.55 4.5 16 4.05 16 3.52812V1.5C16 0.671562 15.3281 0 14.5 0ZM13 12.5H3C2.72384 12.5 2.5 12.2762 2.5 12V4.5H13.5V12C13.5 12.275 13.275 12.5 13 12.5ZM14.5 3H1.5V1.5H14.5V3ZM5.72188 7.5H10.2219C10.6656 7.5 11 7.16563 11 6.75C11 6.33437 10.6656 6 10.25 6H5.72188C5.33438 6 5 6.33438 5 6.72188C5 7.16563 5.33438 7.5 5.72188 7.5Z" fill="#546E7A"/>
</svg>
