<svg width="35" height="28" viewBox="0 0 35 28" fill="none" xmlns="http://www.w3.org/2000/svg">
<path d="M33.125 24.0625L19.8125 1.3125C19.25 0.4375 18.375 0 17.5 0C16.5625 0 15.6875 0.4375 15.125 1.3125L1.75 24.0625C0.8125 25.8125 2.0625 28 4.125 28H30.8125C32.875 28 34.125 25.8125 33.125 24.0625ZM4.75 25L17.4375 3.3125L30.1875 25H4.75ZM17.5 19.125C16.375 19.125 15.5 20 15.5 21.0625C15.5 22.125 16.375 23 17.5 23C18.5625 23 19.4375 22.125 19.4375 21.0625C19.4375 20 18.5625 19.125 17.5 19.125ZM16 9.5V15.5C16 16.375 16.625 17 17.5 17C18.3125 17 19 16.375 19 15.5V9.5C19 8.6875 18.3125 8 17.5 8C16.625 8 16 8.6875 16 9.5Z" fill="white"/>
</svg>
