<svg width="12" height="11" viewBox="0 0 12 11" fill="none" xmlns="http://www.w3.org/2000/svg">
<path d="M1.875 1.375C1.875 1.04297 2.14844 0.75 2.5 0.75C2.83203 0.75 3.125 1.04297 3.125 1.375V2H5.625V1.375C5.625 1.04297 5.89844 0.75 6.25 0.75C6.58203 0.75 6.875 1.04297 6.875 1.375V2H7.8125C8.32031 2 8.75 2.42969 8.75 2.9375V3.875H0V2.9375C0 2.42969 0.410156 2 0.9375 2H1.875V1.375ZM8.75 4.51953C8.63281 4.51953 8.53516 4.5 8.4375 4.5C6.52344 4.5 5 6.04297 5 7.9375C5 9.10938 5.56641 10.1445 6.44531 10.75H0.9375C0.410156 10.75 0 10.3398 0 9.8125V4.5H8.4375H8.75V4.51953ZM11.25 7.9375C11.25 9.5 9.98047 10.75 8.4375 10.75C6.875 10.75 5.625 9.5 5.625 7.9375C5.625 6.39453 6.875 5.125 8.4375 5.125C9.98047 5.125 11.25 6.39453 11.25 7.9375ZM8.10547 6.6875V7.9375C8.10547 8.11328 8.26172 8.25 8.41797 8.25H9.375C9.53125 8.25 9.6875 8.11328 9.6875 7.9375C9.6875 7.78125 9.53125 7.625 9.375 7.625H8.73047V6.6875C8.73047 6.53125 8.59375 6.375 8.41797 6.375C8.26172 6.375 8.10547 6.53125 8.10547 6.6875Z" fill="#1E3A8A"/>
</svg>
