<svg width="33" height="32" viewBox="0 0 33 32" fill="none" xmlns="http://www.w3.org/2000/svg">
<path d="M11.1348 10.9375C11.6973 10.375 12.6348 10.375 13.1973 10.9375L16.1348 13.9375L19.1348 10.9375C19.6973 10.375 20.6348 10.375 21.1973 10.9375C21.8223 11.5625 21.8223 12.5 21.1973 13.0625L18.2598 16L21.1973 18.9375C21.8223 19.5625 21.8223 20.5 21.1973 21.0625C20.6348 21.6875 19.6973 21.6875 19.1348 21.0625L16.1348 18.125L13.1973 21.0625C12.6348 21.6875 11.6973 21.6875 11.1348 21.0625C10.5098 20.5 10.5098 19.5625 11.1348 18.9375L14.0723 16L11.1348 13.0625C10.5098 12.5 10.5098 11.5625 11.1348 10.9375ZM32.1973 16C32.1973 24.875 25.0098 32 16.1973 32C7.32227 32 0.197266 24.875 0.197266 16C0.197266 7.1875 7.32227 0 16.1973 0C25.0098 0 32.1973 7.1875 32.1973 16ZM16.1973 3C9.00977 3 3.19727 8.875 3.19727 16C3.19727 23.1875 9.00977 29 16.1973 29C23.3223 29 29.1973 23.1875 29.1973 16C29.1973 8.875 23.3223 3 16.1973 3Z" fill="white"/>
</svg>
