<svg width="32" height="29" viewBox="0 0 32 29" fill="none" xmlns="http://www.w3.org/2000/svg">
<path d="M10.9375 9.01953C11.5 8.45703 12.4375 8.45703 13 9.01953L15.9375 12.0195L18.9375 9.01953C19.5 8.45703 20.4375 8.45703 21 9.01953C21.625 9.64453 21.625 10.582 21 11.1445L18.0625 14.082L21 17.0195C21.625 17.6445 21.625 18.582 21 19.1445C20.4375 19.7695 19.5 19.7695 18.9375 19.1445L15.9375 16.207L13 19.1445C12.4375 19.7695 11.5 19.7695 10.9375 19.1445C10.3125 18.582 10.3125 17.6445 10.9375 17.0195L13.875 14.082L10.9375 11.1445C10.3125 10.582 10.3125 9.64453 10.9375 9.01953ZM0.9375 11.7695L6.75 2.26953C7.5625 0.957031 9 0.0820312 10.5625 0.0820312H21.375C22.9375 0.0820312 24.375 0.957031 25.1875 2.26953L31 11.7695C31.875 13.207 31.875 15.0195 31 16.457L25.1875 25.957C24.375 27.2695 22.9375 28.082 21.375 28.082H10.5625C9 28.082 7.5625 27.2695 6.75 25.957L0.9375 16.457C0.0625 15.0195 0.0625 13.207 0.9375 11.7695ZM3.5 13.332C3.25 13.832 3.25 14.3945 3.5 14.8945L9.3125 24.3945C9.5625 24.832 10.0625 25.082 10.5625 25.082H21.375C21.875 25.082 22.375 24.832 22.625 24.3945L28.4375 14.8945C28.6875 14.3945 28.6875 13.832 28.4375 13.332L22.625 3.83203C22.375 3.39453 21.875 3.08203 21.375 3.08203H10.5625C10.0625 3.08203 9.5625 3.39453 9.3125 3.83203L3.5 13.332ZM25.1875 2.26953L22.625 3.83203L25.1875 2.26953ZM0.9375 16.457L3.5 14.8945L0.9375 16.457Z" fill="white"/>
</svg>
