<svg width="15" height="15" viewBox="0 0 15 15" fill="none" xmlns="http://www.w3.org/2000/svg">
<path d="M6.8418 10.0469C6.54102 10.3477 6.07617 10.3477 5.77539 10.0469L4.02539 8.29688C3.72461 7.99609 3.72461 7.53125 4.02539 7.23047C4.32617 6.92969 4.79102 6.92969 5.0918 7.23047L6.32227 8.43359L9.27539 5.48047C9.57617 5.17969 10.041 5.17969 10.3418 5.48047C10.6426 5.78125 10.6426 6.24609 10.3418 6.54688L6.8418 10.0469ZM14.1973 7.75C14.1973 11.6328 11.0527 14.75 7.19727 14.75C3.31445 14.75 0.197266 11.6328 0.197266 7.75C0.197266 3.89453 3.31445 0.75 7.19727 0.75C11.0527 0.75 14.1973 3.89453 14.1973 7.75ZM7.19727 2.0625C4.05273 2.0625 1.50977 4.63281 1.50977 7.75C1.50977 10.8945 4.05273 13.4375 7.19727 13.4375C10.3145 13.4375 12.8848 10.8945 12.8848 7.75C12.8848 4.63281 10.3145 2.0625 7.19727 2.0625Z" fill="#FA603E"/>
</svg>
