<svg width="13" height="13" viewBox="0 0 13 13" fill="none" xmlns="http://www.w3.org/2000/svg">
<path d="M2.60645 1.625H8.55957L9.37988 2.42188V4.25H10.5049V2.42188C10.5049 2.14062 10.3643 1.83594 10.1533 1.625L9.37988 0.851562C9.16895 0.640625 8.86426 0.5 8.58301 0.5H2.60645C1.99707 0.5 1.50488 1.01562 1.50488 1.625V3.57031V4.25H2.62988L2.60645 1.625ZM10.3174 5H1.69238C0.754883 5 0.00488281 5.77344 0.00488281 6.6875V9.3125C0.00488281 9.64062 0.239258 9.875 0.567383 9.875H1.87988V11.75C1.87988 12.1719 2.20801 12.5 2.62988 12.5H9.37988C9.77832 12.5 10.1299 12.1719 10.1299 11.75V9.875H11.4424C11.7471 9.875 12.0049 9.64062 12.0049 9.3125V6.6875C12.0049 5.77344 11.2314 5 10.3174 5ZM9.00488 11.375H3.00488V9.125H9.00488V11.375ZM10.8799 8.75H10.1299C10.1299 8.35156 9.77832 8 9.37988 8H2.62988C2.20801 8 1.87988 8.35156 1.87988 8.75H1.12988V6.6875C1.12988 6.38281 1.36426 6.125 1.69238 6.125H10.3174C10.6221 6.125 10.8799 6.38281 10.8799 6.6875V8.75Z" fill="#607D8B"/>
</svg>
