<svg width="14" height="9" viewBox="0 0 14 9" fill="none" xmlns="http://www.w3.org/2000/svg">
<path d="M12.25 0H1.75C0.90625 0 0.25 0.679688 0.25 1.5V7.5C0.25 8.34375 0.90625 9 1.75 9H12.25C13.0703 9 13.75 8.34375 13.75 7.5V1.5C13.75 0.679688 13.0703 0 12.25 0ZM12.625 6.375C11.7812 6.375 11.125 7.05469 11.125 7.875H2.875C2.875 7.05469 2.19531 6.375 1.375 6.375V2.625C2.19531 2.625 2.875 1.96875 2.875 1.125H11.125C11.125 1.96875 11.7812 2.625 12.625 2.625V6.375ZM8.875 4.5C8.875 5.76562 8.03125 6.75 7 6.75C5.94531 6.75 5.125 5.74219 5.125 4.5C5.125 3.25781 5.94531 2.25 7 2.25C8.03125 2.25 8.875 3.25781 8.875 4.5Z" fill="#607D8B"/>
</svg>
