<svg width="28" height="32" viewBox="0 0 28 32" fill="none" xmlns="http://www.w3.org/2000/svg">
<path d="M10 25C10 25.5625 9.5 26 9 26C8.4375 26 8 25.5625 8 25V12C8 11.5 8.4375 11 9 11C9.5 11 10 11.5 10 12V25ZM15 25C15 25.5625 14.5 26 14 26C13.4375 26 13 25.5625 13 25V12C13 11.5 13.4375 11 14 11C14.5 11 15 11.5 15 12V25ZM20 25C20 25.5625 19.5 26 19 26C18.4375 26 18 25.5625 18 25V12C18 11.5 18.4375 11 19 11C19.5 11 20 11.5 20 12V25ZM19.8125 1.5625L22.125 5H26.5C27.3125 5 28 5.6875 28 6.5C28 7.375 27.3125 8 26.5 8H26V27C26 29.8125 23.75 32 21 32H7C4.1875 32 2 29.8125 2 27V8H1.5C0.625 8 0 7.375 0 6.5C0 5.6875 0.625 5 1.5 5H5.8125L8.125 1.5625C8.75 0.625 9.875 0 11.0625 0H16.875C18.0625 0 19.1875 0.625 19.8125 1.5625ZM9.4375 5H18.5L17.3125 3.25C17.25 3.125 17.0625 3 16.875 3H11.0625C10.875 3 10.6875 3.125 10.625 3.25L9.4375 5ZM5 27C5 28.125 5.875 29 7 29H21C22.0625 29 23 28.125 23 27V8H5V27Z" fill="white"/>
</svg>
