<svg width="32" height="28" viewBox="0 0 32 28" fill="none" xmlns="http://www.w3.org/2000/svg">
<path d="M15.9375 6C16.8125 6 17.5 6.6875 17.5 7.5V14.5C17.5 15.375 16.8125 16 15.9375 16C15.125 16 14.4375 15.375 14.4375 14.5V7.5C14.4375 6.6875 15.125 6 15.9375 6ZM18 20C18 21.125 17.0625 22 15.9375 22C14.875 22 13.9375 21.125 13.9375 20C13.9375 18.9375 14.875 18 15.9375 18C17.0625 18 18 18.9375 18 20ZM0.9375 11.6875L6.75 2.1875C7.5625 0.875 9 0 10.5625 0H21.375C22.9375 0 24.375 0.875 25.1875 2.1875L31 11.6875C31.875 13.125 31.875 14.9375 31 16.375L25.1875 25.875C24.375 27.1875 22.9375 28 21.375 28H10.5625C9 28 7.5625 27.1875 6.75 25.875L0.9375 16.375C0.0625 14.9375 0.0625 13.125 0.9375 11.6875ZM3.5 13.25C3.25 13.75 3.25 14.3125 3.5 14.8125L9.3125 24.3125C9.5625 24.75 10.0625 25 10.5625 25H21.375C21.875 25 22.375 24.75 22.625 24.3125L28.4375 14.8125C28.6875 14.3125 28.6875 13.75 28.4375 13.25L22.625 3.75C22.375 3.3125 21.875 3 21.375 3H10.5625C10.0625 3 9.5625 3.3125 9.3125 3.75L3.5 13.25ZM25.1875 2.1875L22.625 3.75L25.1875 2.1875ZM0.9375 16.375L3.5 14.8125L0.9375 16.375Z" fill="white"/>
</svg>
