<svg width="13" height="16" viewBox="0 0 13 16" fill="none" xmlns="http://www.w3.org/2000/svg">
<path d="M10.9922 6.00217H10.495V4.08432C10.495 1.79361 8.84353 0 6.48167 0C4.11987 0 2.5039 1.82906 2.5039 4.08432V5.98448H2.00668C0.905717 5.98448 0.0178213 6.87237 0 7.99115V13.9933C0 15.0943 0.887896 15.9822 2.00668 16H10.9922C12.0931 16 12.981 15.1121 12.9989 13.9933V7.99084C12.9989 6.88988 12.0931 6.00198 10.9922 6.00198V6.00217ZM3.49834 6.00217V4.08432C3.49834 2.3795 4.67039 0.994411 6.4816 0.994411C8.27512 0.994411 9.50042 2.34398 9.50042 4.08432V5.98448L3.49824 5.98435V6.00219L3.49834 6.00217ZM11.9866 13.9932C11.9866 14.5437 11.5427 14.9876 10.9922 14.9876H2.00671C1.45624 14.9876 1.0123 14.5437 1.0123 13.9932V7.99106C1.0123 7.44059 1.45624 6.99665 2.00671 6.99665H10.9922C11.5427 6.99665 11.9866 7.44059 11.9866 7.99106V13.9932ZM7.49387 9.9977C7.49387 10.3707 7.29853 10.6903 6.99665 10.8679H6.97893H6.99665V12.5016C6.99665 12.7858 6.76576 12.9988 6.49943 12.9988C6.21527 12.9988 6.0022 12.7679 6.0022 12.5016V10.8679H6.01992H6.0022C5.70034 10.6902 5.50498 10.3706 5.50498 9.9977C5.50498 9.44724 5.94893 9.00329 6.49939 9.00329C7.04986 8.98545 7.49381 9.42942 7.49381 9.9977H7.49387Z" fill="#78909C"/>
</svg>
