<svg width="14" height="15" viewBox="0 0 14 15" fill="none" xmlns="http://www.w3.org/2000/svg">
<path d="M6.64453 10.1289C6.34375 10.4297 5.87891 10.4297 5.57812 10.1289L3.82812 8.37891C3.52734 8.07812 3.52734 7.61328 3.82812 7.3125C4.12891 7.01172 4.59375 7.01172 4.89453 7.3125L6.125 8.51562L9.07812 5.5625C9.37891 5.26172 9.84375 5.26172 10.1445 5.5625C10.4453 5.86328 10.4453 6.32812 10.1445 6.62891L6.64453 10.1289ZM14 7.83203C14 11.7148 10.8555 14.832 7 14.832C3.11719 14.832 0 11.7148 0 7.83203C0 3.97656 3.11719 0.832031 7 0.832031C10.8555 0.832031 14 3.97656 14 7.83203ZM7 2.14453C3.85547 2.14453 1.3125 4.71484 1.3125 7.83203C1.3125 10.9766 3.85547 13.5195 7 13.5195C10.1172 13.5195 12.6875 10.9766 12.6875 7.83203C12.6875 4.71484 10.1172 2.14453 7 2.14453Z" fill="#D97706"/>
</svg>
