<svg width="12" height="12" viewBox="0 0 12 12" fill="none" xmlns="http://www.w3.org/2000/svg">
<path d="M11.625 1.625V5C11.625 5.42188 11.2734 5.75 10.875 5.75H7.5C7.07812 5.75 6.75 5.42188 6.75 5C6.75 4.60156 7.07812 4.25 7.5 4.25H8.97656C8.27344 3.33594 7.17188 2.77344 5.97656 2.77344C3.91406 2.77344 2.25 4.4375 2.25 6.5C2.25 8.58594 3.91406 10.25 5.97656 10.25C6.79688 10.25 7.57031 9.99219 8.22656 9.5C8.55469 9.26562 9.02344 9.33594 9.28125 9.66406C9.53906 9.99219 9.46875 10.4609 9.14062 10.7188C8.22656 11.3984 7.125 11.75 5.97656 11.75C3.09375 11.75 0.75 9.40625 0.75 6.5C0.75 3.61719 3.09375 1.27344 5.97656 1.27344C7.61719 1.27344 9.11719 2.02344 10.125 3.28906V1.625C10.125 1.22656 10.4531 0.875 10.875 0.875C11.2734 0.875 11.625 1.22656 11.625 1.625Z" fill="#4294F6"/>
</svg>
