<svg width="13" height="13" viewBox="0 0 13 13" fill="none" xmlns="http://www.w3.org/2000/svg">
<path d="M5.875 7.10938C5.57031 6.80469 5.10156 6.80469 4.79688 7.10938L2.96875 8.9375L2.26562 8.23438C2.125 8.09375 1.9375 8.02344 1.72656 8.02344C1.63281 8.02344 1.53906 8.02344 1.44531 8.07031C1.16406 8.1875 0.976562 8.46875 0.976562 8.77344V11.9375C1 12.2656 1.23438 12.5 1.5625 12.5H4.75C5.03125 12.5 5.3125 12.3359 5.42969 12.0547C5.54688 11.7734 5.47656 11.4453 5.26562 11.2344L4.5625 10.5312L6.39062 8.70312C6.69531 8.39844 6.69531 7.92969 6.39062 7.625L5.875 7.10938ZM12.4141 0.5H9.22656C8.92188 0.5 8.64062 0.6875 8.52344 0.96875C8.40625 1.25 8.47656 1.57812 8.6875 1.78906L9.39062 2.49219L7.5625 4.32031C7.25781 4.625 7.25781 5.09375 7.5625 5.39844L8.10156 5.91406C8.38281 6.21875 8.85156 6.21875 9.15625 5.91406L10.9844 4.08594L11.6875 4.78906C11.8984 5 12.2266 5.07031 12.5078 4.95312C12.8125 4.83594 13 4.55469 13 4.25V1.0625C13 0.757812 12.7422 0.5 12.4141 0.5Z" fill="#455A64"/>
</svg>
