<svg width="16" height="15" viewBox="0 0 16 15" fill="none" xmlns="http://www.w3.org/2000/svg">
<path d="M5.375 9.28125C5.375 8.92578 5.64844 8.625 6.03125 8.625H10.625V5.125H7.125C6.63281 5.125 6.25 4.74219 6.25 4.25V0.75H1.4375C0.699219 0.75 0.125 1.35156 0.125 2.0625V13.4375C0.125 14.1758 0.699219 14.75 1.4375 14.75H9.3125C10.0234 14.75 10.625 14.1758 10.625 13.4375V9.9375H6.03125C5.64844 9.9375 5.375 9.66406 5.375 9.28125ZM7.125 0.75V4.25H10.625L7.125 0.75ZM15.6562 8.81641L13.4688 6.62891C13.1953 6.38281 12.7852 6.38281 12.5391 6.62891C12.2656 6.90234 12.2656 7.3125 12.5391 7.55859L13.6328 8.625H10.625V9.9375H13.6328L12.5664 11.0312C12.4297 11.1406 12.375 11.3047 12.375 11.4688C12.375 11.6602 12.4297 11.8242 12.5664 11.9336C12.8125 12.207 13.2227 12.207 13.4688 11.9336L15.6562 9.74609C15.9297 9.5 15.9297 9.08984 15.6562 8.81641Z" fill="#4086E7"/>
</svg>
