<svg width="11" height="15" viewBox="0 0 11 15" fill="none" xmlns="http://www.w3.org/2000/svg">
<path d="M6.125 4.25V0.75H1.3125C0.574219 0.75 0 1.35156 0 2.0625V13.4375C0 14.1758 0.574219 14.75 1.3125 14.75H9.1875C9.89844 14.75 10.5 14.1758 10.5 13.4375V5.125H7C6.50781 5.125 6.125 4.74219 6.125 4.25ZM7.4375 7.99609L6.125 10.1562L7.4375 12.3438C7.62891 12.6445 7.41016 13 7.08203 13H6.34375C6.20703 13 6.07031 12.9453 5.98828 12.8086L5.25 11.5781L4.48438 12.8086C4.40234 12.9453 4.26562 13 4.12891 13H3.39062C3.0625 13 2.84375 12.6445 3.00781 12.3438L4.375 10.1562L3.03516 7.99609C2.84375 7.69531 3.0625 7.3125 3.39062 7.3125H4.12891C4.26562 7.3125 4.40234 7.39453 4.48438 7.53125L5.25 8.73438L5.98828 7.53125C6.07031 7.39453 6.20703 7.3125 6.34375 7.3125H7.08203C7.41016 7.3125 7.62891 7.69531 7.4375 7.99609ZM7 0.75V4.25H10.5L7 0.75Z" fill="#EF5350"/>
</svg>
