<svg width="13" height="14" viewBox="0 0 13 14" fill="none" xmlns="http://www.w3.org/2000/svg">
<path d="M6.47559 8.42188L7.2959 10.0625H5.62793L6.47559 8.42188ZM6.47559 0C8.63574 0 10.4131 1.77734 10.4131 3.9375V5.25H10.8506C11.8076 5.25 12.6006 6.04297 12.6006 7V12.25C12.6006 13.2344 11.8076 14 10.8506 14H2.10059C1.11621 14 0.350586 13.2344 0.350586 12.25V7C0.350586 6.04297 1.11621 5.25 2.10059 5.25H2.53809V3.9375C2.53809 1.77734 4.28809 0 6.47559 0ZM6.47559 1.75C5.24512 1.75 4.28809 2.73438 4.28809 3.9375V5.25H8.66309V3.9375C8.66309 2.73438 7.67871 1.75 6.47559 1.75ZM4.06934 12.2227C4.28809 12.332 4.56152 12.25 4.6709 12.0312L5.19043 10.9375H7.7334L8.25293 12.0312C8.3623 12.25 8.63574 12.332 8.85449 12.2227C9.07324 12.1133 9.15527 11.8398 9.0459 11.6211L6.8584 7.24609C6.83105 7.21875 6.80371 7.16406 6.77637 7.13672C6.72168 7.10938 6.69434 7.08203 6.63965 7.05469C6.58496 7.02734 6.53027 7 6.47559 7C6.39355 7 6.33887 7.02734 6.28418 7.05469C6.22949 7.08203 6.20215 7.10938 6.14746 7.13672C6.12012 7.16406 6.09277 7.21875 6.06543 7.24609L3.87793 11.6211C3.76855 11.8398 3.85059 12.1133 4.06934 12.2227Z" fill="#DA9F47"/>
<path fill-rule="evenodd" clip-rule="evenodd" d="M4.06934 12.2227C4.28809 12.332 4.56152 12.25 4.6709 12.0312L5.19043 10.9375H7.7334L8.25293 12.0312C8.3623 12.25 8.63574 12.332 8.85449 12.2227C9.07324 12.1133 9.15527 11.8398 9.0459 11.6211L6.8584 7.24609C6.83105 7.21875 6.80371 7.16406 6.77637 7.13672C6.72168 7.10938 6.69434 7.08203 6.63965 7.05469C6.58496 7.02734 6.53027 7 6.47559 7C6.39355 7 6.33887 7.02734 6.28418 7.05469C6.22949 7.08203 6.20215 7.10938 6.14746 7.13672C6.12012 7.16406 6.09277 7.21875 6.06543 7.24609L3.87793 11.6211C3.76855 11.8398 3.85059 12.1133 4.06934 12.2227ZM7.2959 10.0625L6.47559 8.42188L5.62793 10.0625H7.2959Z" fill="#DA9F47"/>
</svg>
