<svg width="16" height="15" viewBox="0 0 16 15" fill="none" xmlns="http://www.w3.org/2000/svg">
<path d="M0 2.5C0 1.54297 0.765625 0.75 1.75 0.75H6.125V4.25C6.125 4.74219 6.50781 5.125 7 5.125H10.5V6.19141C8.47656 6.76562 7 8.625 7 10.8125C7 12.4531 7.79297 13.875 8.99609 14.75C8.91406 14.75 8.83203 14.75 8.75 14.75H1.75C0.765625 14.75 0 13.9844 0 13V2.5ZM7 4.25V0.75L10.5 4.25H7ZM7.875 10.8125C7.875 8.65234 9.625 6.875 11.8125 6.875C13.9727 6.875 15.75 8.65234 15.75 10.8125C15.75 13 13.9727 14.75 11.8125 14.75C9.625 14.75 7.875 13 7.875 10.8125ZM13.4258 9.82812C13.5898 9.66406 13.5898 9.36328 13.4258 9.19922C13.2617 9.03516 12.9609 9.03516 12.7969 9.19922L11.8125 10.2109L10.8008 9.19922C10.6367 9.03516 10.3359 9.03516 10.1719 9.19922C10.0078 9.36328 10.0078 9.66406 10.1719 9.82812L11.1836 10.8125L10.1719 11.8242C10.0078 11.9883 10.0078 12.2891 10.1719 12.4531C10.3359 12.6172 10.6367 12.6172 10.8008 12.4531L11.8125 11.4414L12.7969 12.4531C12.9609 12.6172 13.2617 12.6172 13.4258 12.4531C13.5898 12.2891 13.5898 11.9883 13.4258 11.8242L12.4141 10.8125L13.4258 9.82812Z" fill="#EF5350"/>
</svg>
