<svg width="16" height="15" viewBox="0 0 16 15" fill="none" xmlns="http://www.w3.org/2000/svg">
<path d="M0.125 2.5C0.125 1.54297 0.890625 0.75 1.875 0.75H6.25V4.25C6.25 4.74219 6.63281 5.125 7.125 5.125H10.625V6.19141C8.60156 6.76562 7.125 8.625 7.125 10.8125C7.125 12.4531 7.91797 13.875 9.12109 14.75C9.03906 14.75 8.95703 14.75 8.875 14.75H1.875C0.890625 14.75 0.125 13.9844 0.125 13V2.5ZM7.125 4.25V0.75L10.625 4.25H7.125ZM8 10.8125C8 8.65234 9.75 6.875 11.9375 6.875C14.0977 6.875 15.875 8.65234 15.875 10.8125C15.875 13 14.0977 14.75 11.9375 14.75C9.75 14.75 8 13 8 10.8125ZM13.5508 9.82812C13.7148 9.66406 13.7148 9.36328 13.5508 9.19922C13.3867 9.03516 13.0859 9.03516 12.9219 9.19922L11.9375 10.2109L10.9258 9.19922C10.7617 9.03516 10.4609 9.03516 10.2969 9.19922C10.1328 9.36328 10.1328 9.66406 10.2969 9.82812L11.3086 10.8125L10.2969 11.8242C10.1328 11.9883 10.1328 12.2891 10.2969 12.4531C10.4609 12.6172 10.7617 12.6172 10.9258 12.4531L11.9375 11.4414L12.9219 12.4531C13.0859 12.6172 13.3867 12.6172 13.5508 12.4531C13.7148 12.2891 13.7148 11.9883 13.5508 11.8242L12.5391 10.8125L13.5508 9.82812Z" fill="white"/>
</svg>
