<svg width="32" height="33" viewBox="0 0 32 33" fill="none" xmlns="http://www.w3.org/2000/svg">
<path d="M28 16.5C28 23.1274 22.6274 28.5 16 28.5C9.37258 28.5 4 23.1274 4 16.5C4 9.87258 9.37258 4.5 16 4.5C22.6274 4.5 28 9.87258 28 16.5Z" fill="white"/>
<path fill-rule="evenodd" clip-rule="evenodd" d="M22.7179 11.8039C23.1024 12.2003 23.0926 12.8334 22.6961 13.2179L14.4461 21.2179C14.0583 21.594 13.4417 21.594 13.0539 21.2179L9.30385 17.5815C8.90737 17.1971 8.89763 16.564 9.2821 16.1675C9.66657 15.771 10.2997 15.7613 10.6961 16.1457L13.75 19.107L21.3039 11.7821C21.7003 11.3976 22.3334 11.4074 22.7179 11.8039Z" fill="#34D399"/>
</svg>
