<svg width="8" height="8" viewBox="0 0 8 8" fill="none" xmlns="http://www.w3.org/2000/svg">
<path d="M3.83656 1.70548L2.66785 2.19624V0.189691L1.71654 3.50145L2.66785 3.0803V5.34789L3.83656 1.70548ZM2.38959 0.0226237L2.36698 0.104417L2.10263 1.02503C1.40175 1.29477 0.904357 1.97522 0.904357 2.77053C0.904357 3.6807 1.50088 4.43946 2.35481 4.60653V5.53932C1.00001 5.35659 0 4.17842 0 2.77227C0 1.37134 1.04001 0.210574 2.38959 0.0226237ZM7.8053 7.80517C7.61051 8.00008 7.40355 8.01922 7.3079 7.9879C7.21399 7.95657 6.83659 7.64158 6.25745 7.21521C5.67832 6.7871 5.6731 6.59393 5.50962 6.22847C5.34614 5.86475 4.98092 5.48711 4.50961 5.31656L4.34091 5.06074C3.91134 5.35485 3.41917 5.52888 2.92699 5.5602L2.96351 5.44535L3.24003 4.58391C4.04874 4.37681 4.647 3.64415 4.647 2.77053C4.647 1.82208 3.97917 0.993702 2.97742 0.906687V0C4.42439 0.0887544 5.56527 1.29651 5.56527 2.77227C5.56527 3.35701 5.37049 3.89823 5.06092 4.34549L5.31484 4.51255C5.48527 4.98417 5.86267 5.34789 6.22615 5.51148C6.58963 5.67506 6.78616 5.68028 7.21399 6.2598C7.64182 6.83757 7.9566 7.21521 7.98791 7.30919C8.01921 7.40316 8.00008 7.61026 7.8053 7.80517ZM7.63312 7.49366C7.63312 7.41709 7.57051 7.35444 7.49399 7.35444C7.41747 7.35444 7.35486 7.41709 7.35486 7.49366C7.35486 7.57023 7.41747 7.63288 7.49399 7.63288C7.57051 7.63288 7.63312 7.57023 7.63312 7.49366Z" fill="#3763C1"/>
</svg>
