<svg width="14" height="14" viewBox="0 0 14 14" fill="none" xmlns="http://www.w3.org/2000/svg">
<path d="M12.6855 3.18359L10.2246 0.722656C10.0195 0.517578 9.58008 0.3125 9.25781 0.3125H1.875C0.820312 0.3125 0 1.16211 0 2.1875V11.5625C0 12.6172 0.820312 13.4375 1.875 13.4375H11.25C12.2754 13.4375 13.125 12.6172 13.125 11.5625V4.17969C13.125 3.85742 12.9199 3.41797 12.6855 3.18359ZM6.5625 11.5625C5.50781 11.5625 4.6875 10.7422 4.6875 9.6875C4.6875 8.66211 5.50781 7.8125 6.5625 7.8125C7.58789 7.8125 8.4375 8.66211 8.4375 9.6875C8.4375 10.7422 7.58789 11.5625 6.5625 11.5625ZM9.375 5.46875C9.375 5.73242 9.14062 5.9375 8.90625 5.9375H2.34375C2.08008 5.9375 1.875 5.73242 1.875 5.46875V2.65625C1.875 2.42188 2.08008 2.1875 2.34375 2.1875H8.90625C9.14062 2.1875 9.375 2.42188 9.375 2.65625V5.46875Z" fill="#DA9F47"/>
</svg>
