<svg width="14" height="14" viewBox="0 0 14 14" fill="none" xmlns="http://www.w3.org/2000/svg">
<path d="M12.7969 12.084L9.39453 8.68164C10.1309 7.79297 10.5371 6.65039 10.5371 5.40625C10.5371 2.51172 8.15039 0.125 5.25586 0.125C2.33594 0.125 0 2.51172 0 5.40625C0 8.32617 2.36133 10.6875 5.25586 10.6875C6.47461 10.6875 7.61719 10.2812 8.53125 9.54492L11.9336 12.9473C12.0605 13.0742 12.2129 13.125 12.3906 13.125C12.543 13.125 12.6953 13.0742 12.7969 12.9473C13.0508 12.7188 13.0508 12.3379 12.7969 12.084ZM1.21875 5.40625C1.21875 3.17188 3.02148 1.34375 5.28125 1.34375C7.51562 1.34375 9.34375 3.17188 9.34375 5.40625C9.34375 7.66602 7.51562 9.46875 5.28125 9.46875C3.02148 9.46875 1.21875 7.66602 1.21875 5.40625Z" fill="#546E7A"/>
</svg>
