<svg width="11" height="13" viewBox="0 0 11 13" fill="none" xmlns="http://www.w3.org/2000/svg">
<path d="M4.25 9.875C4.25 10.0859 4.0625 10.25 3.875 10.25C3.66406 10.25 3.5 10.0859 3.5 9.875V5C3.5 4.8125 3.66406 4.625 3.875 4.625C4.0625 4.625 4.25 4.8125 4.25 5V9.875ZM6.125 9.875C6.125 10.0859 5.9375 10.25 5.75 10.25C5.53906 10.25 5.375 10.0859 5.375 9.875V5C5.375 4.8125 5.53906 4.625 5.75 4.625C5.9375 4.625 6.125 4.8125 6.125 5V9.875ZM8 9.875C8 10.0859 7.8125 10.25 7.625 10.25C7.41406 10.25 7.25 10.0859 7.25 9.875V5C7.25 4.8125 7.41406 4.625 7.625 4.625C7.8125 4.625 8 4.8125 8 5V9.875ZM7.92969 1.08594L8.79688 2.375H10.4375C10.7422 2.375 11 2.63281 11 2.9375C11 3.26562 10.7422 3.5 10.4375 3.5H10.25V10.625C10.25 11.6797 9.40625 12.5 8.375 12.5H3.125C2.07031 12.5 1.25 11.6797 1.25 10.625V3.5H1.0625C0.734375 3.5 0.5 3.26562 0.5 2.9375C0.5 2.63281 0.734375 2.375 1.0625 2.375H2.67969L3.54688 1.08594C3.78125 0.734375 4.20312 0.5 4.64844 0.5H6.82812C7.27344 0.5 7.69531 0.734375 7.92969 1.08594ZM4.03906 2.375H7.4375L6.99219 1.71875C6.96875 1.67188 6.89844 1.625 6.82812 1.625H4.64844C4.57812 1.625 4.50781 1.67188 4.48438 1.71875L4.03906 2.375ZM2.375 10.625C2.375 11.0469 2.70312 11.375 3.125 11.375H8.375C8.77344 11.375 9.125 11.0469 9.125 10.625V3.5H2.375V10.625Z" fill="#546E7A"/>
</svg>
