<svg width="13" height="13" viewBox="0 0 13 13" fill="none" xmlns="http://www.w3.org/2000/svg">
<path d="M1.85938 8.09375L8.98438 0.96875C9.57031 0.382812 10.5312 0.382812 11.1172 0.96875L12.0312 1.88281C12.1016 1.95312 12.1719 2.04688 12.2188 2.11719C12.6172 2.70312 12.5469 3.5 12.0312 4.01562L4.90625 11.1406C4.88281 11.1641 4.83594 11.1875 4.8125 11.2344C4.57812 11.4219 4.32031 11.5625 4.03906 11.6562L1.20312 12.4766C1.01562 12.5469 0.804688 12.5 0.664062 12.3359C0.5 12.1953 0.453125 11.9844 0.5 11.7969L1.34375 8.96094C1.4375 8.63281 1.625 8.32812 1.85938 8.09375ZM2.42188 9.28906L1.88281 11.1172L3.71094 10.5781C3.85156 10.5312 3.99219 10.4609 4.10938 10.3438L9.47656 4.97656L8 3.52344L2.65625 8.89062C2.63281 8.89062 2.63281 8.91406 2.60938 8.9375C2.51562 9.03125 2.46875 9.14844 2.42188 9.28906Z" fill="#546E7A"/>
</svg>
