<svg width="13" height="14" viewBox="0 0 13 14" fill="none" xmlns="http://www.w3.org/2000/svg">
<path d="M5.89062 3.67188C5.89062 3.3418 6.14453 3.0625 6.5 3.0625C6.83008 3.0625 7.10938 3.3418 7.10938 3.67188V6.82031L9.26758 8.24219C9.54688 8.44531 9.62305 8.82617 9.41992 9.10547C9.24219 9.38477 8.86133 9.46094 8.58203 9.25781L6.14453 7.63281C5.99219 7.53125 5.89062 7.32812 5.89062 7.125V3.67188ZM6.5 0.625C10.0801 0.625 13 3.54492 13 7.125C13 10.7305 10.0801 13.625 6.5 13.625C2.89453 13.625 0 10.7305 0 7.125C0 3.54492 2.89453 0.625 6.5 0.625ZM1.21875 7.125C1.21875 10.0449 3.58008 12.4062 6.5 12.4062C9.39453 12.4062 11.7812 10.0449 11.7812 7.125C11.7812 4.23047 9.39453 1.84375 6.5 1.84375C3.58008 1.84375 1.21875 4.23047 1.21875 7.125Z" fill="#263238"/>
</svg>
