<svg width="11" height="15" viewBox="0 0 11 15" fill="none" xmlns="http://www.w3.org/2000/svg">
<path d="M9.1875 0.75H1.3125C0.574219 0.75 0 1.35156 0 2.0625V13.4375C0 14.1758 0.574219 14.75 1.3125 14.75H9.1875C9.89844 14.75 10.5 14.1758 10.5 13.4375V2.0625C10.5 1.35156 9.89844 0.75 9.1875 0.75ZM5.25 5.125C6.20703 5.125 7 5.91797 7 6.875C7 7.85938 6.20703 8.625 5.25 8.625C4.26562 8.625 3.5 7.85938 3.5 6.875C3.5 5.91797 4.26562 5.125 5.25 5.125ZM7.875 12.125H2.625C2.37891 12.125 2.1875 11.9336 2.1875 11.6875C2.1875 10.4844 3.14453 9.5 4.375 9.5H6.125C7.32812 9.5 8.3125 10.4844 8.3125 11.6875C8.3125 11.9336 8.09375 12.125 7.875 12.125ZM6.5625 3.375H3.9375C3.69141 3.375 3.5 3.18359 3.5 2.9375C3.5 2.71875 3.69141 2.5 3.9375 2.5H6.5625C6.78125 2.5 7 2.71875 7 2.9375C7 3.18359 6.78125 3.375 6.5625 3.375Z" fill="#455A64"/>
</svg>
