<svg width="14" height="16" viewBox="0 0 14 16" fill="none" xmlns="http://www.w3.org/2000/svg">
<path d="M10.691 7.31199C11.4339 6.51814 11.848 5.51271 11.848 4.43996C11.8477 1.99175 9.67311 0 7.0001 0C4.32709 0 2.1522 1.99175 2.1522 4.43996C2.1522 5.51283 2.56614 6.51801 3.30888 7.31199C1.27014 8.32913 0 10.1285 0 12.1048C0 16 4.90538 16 7 16C9.09462 16 14 16 14 12.1048C14 10.1286 12.7299 8.32932 10.6911 7.31199H10.691ZM7.00007 1.24626C8.92289 1.24626 10.4872 2.67888 10.4872 4.43965C10.4872 5.45227 9.97588 6.38359 9.08443 6.99497C8.47509 7.41246 7.7541 7.63337 7 7.63337C6.2459 7.63337 5.52491 7.41244 4.91571 6.99497C4.02439 6.38356 3.51307 5.45227 3.51307 4.43965C3.51307 2.67888 5.07718 1.24626 6.99987 1.24626H7.00007ZM7.00007 14.7534C2.94182 14.7534 1.36083 14.0106 1.36083 12.1047C1.36083 10.4522 2.55174 8.94776 4.4239 8.19701C4.42429 8.19701 4.42442 8.19737 4.42442 8.19737C4.42573 8.1982 4.4269 8.19856 4.42821 8.19964C4.53107 8.25894 4.63655 8.31393 4.74359 8.36606C4.77818 8.38315 4.81395 8.3981 4.84919 8.41376C4.92334 8.44783 4.99735 8.48107 5.07306 8.51143C5.11575 8.52853 5.15883 8.54371 5.20203 8.55973C5.27227 8.58532 5.34262 8.6103 5.41403 8.63337C5.45985 8.64796 5.50567 8.66135 5.55201 8.67462C5.62276 8.69507 5.6939 8.71383 5.76557 8.73117C5.8123 8.74229 5.85929 8.75377 5.90655 8.76345C5.9803 8.77923 6.05471 8.79262 6.12938 8.80506C6.17481 8.81259 6.21997 8.82084 6.26579 8.82729C6.34751 8.83877 6.43027 8.84702 6.51303 8.85455C6.55219 8.85814 6.59148 8.86316 6.6309 8.86603C6.75308 8.87464 6.87605 8.87942 6.99993 8.87942C7.12381 8.87942 7.24678 8.87464 7.3691 8.86603C7.40852 8.86292 7.44794 8.85814 7.48697 8.85455C7.56973 8.84702 7.65223 8.83877 7.73382 8.82729C7.7799 8.82084 7.8252 8.81259 7.87101 8.80506C7.94529 8.7925 8.01983 8.77923 8.09332 8.76345C8.14071 8.75365 8.18744 8.74241 8.2343 8.73117C8.30623 8.71384 8.37724 8.69507 8.44799 8.67462C8.4942 8.66123 8.54002 8.64784 8.58597 8.63337C8.65724 8.61018 8.72786 8.58543 8.79783 8.55973C8.84104 8.54359 8.88425 8.52841 8.9268 8.51143C9.00199 8.48131 9.07627 8.44783 9.15028 8.41411C9.18553 8.39798 9.22182 8.38315 9.25654 8.36617C9.36306 8.31405 9.46854 8.25906 9.57153 8.19976C9.57297 8.19868 9.57401 8.19844 9.57532 8.19748C9.57532 8.19748 9.57571 8.19713 9.5761 8.19713C11.4483 8.94779 12.6392 10.4523 12.6392 12.1049C12.6393 14.0105 11.0583 14.7534 6.99993 14.7534L7.00007 14.7534Z" fill="#78909C"/>
</svg>
