<svg width="15" height="13" viewBox="0 0 15 13" fill="none" xmlns="http://www.w3.org/2000/svg">
<path d="M9.75 7.25C9.75 6.21875 8.74219 5.375 7.5 5.375C6.23438 5.375 5.25 6.21875 5.25 7.25C5.25 8.30469 6.23438 9.125 7.5 9.125C8.74219 9.125 9.75 8.30469 9.75 7.25ZM10.875 11C10.875 11.2109 10.6875 11.375 10.5 11.375H4.5C4.28906 11.375 4.125 11.2109 4.125 11V2.75H3V11C3 11.8438 3.65625 12.5 4.5 12.5H10.5C11.3203 12.5 12 11.8438 12 11V2.75H10.875V11ZM12.75 0.5H2.25C0.984375 0.5 0 1.50781 0 2.75V4.4375C0 4.76562 0.234375 5 0.5625 5C0.867188 5 1.125 4.76562 1.125 4.4375V2.75C1.125 2.14062 1.61719 1.625 2.25 1.625H12.75C13.3594 1.625 13.875 2.14062 13.875 2.75V4.4375C13.875 4.76562 14.1094 5 14.4375 5C14.7422 5 15 4.76562 15 4.4375V2.75C15 1.50781 13.9922 0.5 12.75 0.5Z" fill="#607D8B"/>
</svg>
