<svg width="12" height="12" viewBox="0 0 12 12" fill="none" xmlns="http://www.w3.org/2000/svg">
<path d="M9.21875 4.13281C9.57031 4.48438 9.57031 5.07031 9.21875 5.44531L8.70312 5.96094L7.03906 4.29688L7.55469 3.78125C7.90625 3.42969 8.51562 3.42969 8.86719 3.78125L9.21875 4.13281ZM4.03906 7.27344L6.52344 4.8125L8.1875 6.47656L5.70312 8.9375C5.60938 9.03125 5.49219 9.10156 5.375 9.14844L3.94531 9.5C3.82812 9.52344 3.6875 9.5 3.59375 9.40625C3.5 9.3125 3.47656 9.17188 3.5 9.03125L3.85156 7.625C3.875 7.50781 3.94531 7.39062 4.03906 7.27344ZM1.25 2.75C1.25 1.92969 1.90625 1.25 2.75 1.25H10.25C11.0703 1.25 11.75 1.92969 11.75 2.75V10.25C11.75 11.0938 11.0703 11.75 10.25 11.75H2.75C1.90625 11.75 1.25 11.0938 1.25 10.25V2.75ZM2.375 2.75V10.25C2.375 10.4609 2.53906 10.625 2.75 10.625H10.25C10.4375 10.625 10.625 10.4609 10.625 10.25V2.75C10.625 2.5625 10.4375 2.375 10.25 2.375H2.75C2.53906 2.375 2.375 2.5625 2.375 2.75Z" fill="#607D8B"/>
</svg>
