<svg width="32" height="33" viewBox="0 0 32 33" fill="none" xmlns="http://www.w3.org/2000/svg">
<path d="M14.268 5.5C15.0378 4.16667 16.9623 4.16667 17.7321 5.5L28.1244 23.5C28.8942 24.8333 27.9319 26.5 26.3923 26.5H5.60772C4.06812 26.5 3.10587 24.8333 3.87567 23.5L14.268 5.5Z" fill="white"/>
<path fill-rule="evenodd" clip-rule="evenodd" d="M16 9.5C16.5523 9.5 17 9.94772 17 10.5V18.5C17 19.0523 16.5523 19.5 16 19.5C15.4477 19.5 15 19.0523 15 18.5V10.5C15 9.94772 15.4477 9.5 16 9.5Z" fill="#FBBF24"/>
<path fill-rule="evenodd" clip-rule="evenodd" d="M15 22.8335C15 22.2812 15.4477 21.8335 16 21.8335H16.0178C16.5701 21.8335 17.0178 22.2812 17.0178 22.8335C17.0178 23.3858 16.5701 23.8335 16.0178 23.8335H16C15.4477 23.8335 15 23.3858 15 22.8335Z" fill="#FBBF24"/>
</svg>
