<svg width="8" height="8" viewBox="0 0 8 8" fill="none" xmlns="http://www.w3.org/2000/svg">
<path d="M5 0L7 2H5V0ZM4.5 2C4.5 2.28125 4.71875 2.5 5 2.5H7V7.25C7 7.67188 6.65625 8 6.25 8H1.75C1.32812 8 1 7.67188 1 7.25V0.75C1 0.34375 1.32812 0 1.75 0H4.5V2ZM4 3C3.4375 3 3 3.45312 3 4C3 4.5625 3.4375 5 4 5C4.54688 5 5 4.5625 5 4C5 3.45312 4.54688 3 4 3ZM5.75 6.75C5.75 6.0625 5.1875 5.5 4.5 5.5H3.5C2.79688 5.5 2.25 6.0625 2.25 6.75C2.25 6.89062 2.35938 7 2.5 7H5.5C5.625 7 5.75 6.89062 5.75 6.75Z" fill="#3763C1"/>
</svg>
