<svg width="22" height="22" viewBox="0 0 22 22" fill="none" xmlns="http://www.w3.org/2000/svg">
<path d="M8.00001 9.00037C7.73479 9.00037 7.48044 9.10573 7.2929 9.29327C7.10536 9.4808 7.00001 9.73516 7.00001 10.0004V14.0004H9.00001V11.0004H12V13.5004L15.5 10.0004L12 6.50037V9.00037H8.00001ZM11.707 0.393372L21.607 10.2934C21.7945 10.4809 21.8998 10.7352 21.8998 11.0004C21.8998 11.2655 21.7945 11.5198 21.607 11.7074L11.707 21.6074C11.5195 21.7948 11.2652 21.9002 11 21.9002C10.7348 21.9002 10.4805 21.7948 10.293 21.6074L0.393006 11.7074C0.205535 11.5198 0.10022 11.2655 0.10022 11.0004C0.10022 10.7352 0.205535 10.4809 0.393006 10.2934L10.293 0.393372C10.4805 0.205901 10.7348 0.100586 11 0.100586C11.2652 0.100586 11.5195 0.205901 11.707 0.393372Z" fill="#666670"/>
</svg>
