<svg width="22" height="20" viewBox="0 0 22 20" fill="none" xmlns="http://www.w3.org/2000/svg">
<path d="M19 18.9999C19 19.2651 18.8946 19.5195 18.7071 19.707C18.5196 19.8946 18.2652 19.9999 18 19.9999H4C3.73478 19.9999 3.48043 19.8946 3.29289 19.707C3.10536 19.5195 3 19.2651 3 18.9999V9.99992H0L10.327 0.61192C10.5111 0.444398 10.7511 0.351562 11 0.351562C11.2489 0.351563 11.4889 0.444398 11.673 0.61192L22 9.99992H19V18.9999ZM6 9.99992V11.9999C6.65661 11.9999 7.30679 12.1292 7.91342 12.3805C8.52004 12.6318 9.07124 13.0001 9.53553 13.4644C9.99983 13.9287 10.3681 14.4799 10.6194 15.0865C10.8707 15.6931 11 16.3433 11 16.9999H13C13 15.1434 12.2625 13.3629 10.9497 12.0502C9.63699 10.7374 7.85652 9.99992 6 9.99992ZM6 13.9999V16.9999H9C9 16.2043 8.68393 15.4412 8.12132 14.8786C7.55871 14.316 6.79565 13.9999 6 13.9999Z" fill="#666670"/>
</svg>
