<svg width="12" height="24" viewBox="0 0 12 24" fill="none" xmlns="http://www.w3.org/2000/svg">
<path fill-rule="evenodd" clip-rule="evenodd" d="M0 19.7612L5.97408 23.3313C6.41007 23.5933 6.96215 23.5702 7.37616 23.2703C7.79109 22.9704 7.98519 22.4533 7.87202 21.9532L6.32804 15.1521L11.5643 10.561C11.9492 10.225 12.0953 9.69195 11.9373 9.20597C11.7792 8.72 11.3493 8.37484 10.8391 8.32887L3.91208 7.69989L1.17294 1.28866C0.970975 0.818815 0.511034 0.514675 0 0.514648V2.36184L2.58197 8.41091C2.766 8.84488 3.17103 9.14097 3.64199 9.184L10.1832 9.77801L5.23908 14.1141C4.88605 14.4231 4.73095 14.9001 4.83496 15.357L6.29215 21.7763L0.654002 18.4041C0.451869 18.2842 0.227035 18.2232 0 18.2232V19.7612ZM3.96299 7.82093L3.96409 7.82294L3.96299 7.82093Z" fill="#FFD351"/>
</svg>
