<svg width="12" height="24" viewBox="0 0 12 24" fill="none" xmlns="http://www.w3.org/2000/svg">
<path fill-rule="evenodd" clip-rule="evenodd" d="M12 19.7612L6.02592 23.3313C5.58993 23.5933 5.03785 23.5702 4.62384 23.2703C4.20891 22.9704 4.01481 22.4533 4.12798 21.9532L5.67196 15.1521L0.435743 10.561C0.0508461 10.225 -0.0952759 9.69195 0.062748 9.20597C0.220772 8.72 0.650715 8.37484 1.16086 8.32887L8.08792 7.69989L10.8271 1.28866C11.029 0.818815 11.489 0.514675 12 0.514648V2.36184L9.41803 8.41091C9.234 8.84488 8.82897 9.14097 8.35801 9.184L1.81676 9.77801L6.76092 14.1141C7.11395 14.4231 7.26905 14.9001 7.16504 15.357L5.70785 21.7763L11.346 18.4041C11.5481 18.2842 11.773 18.2232 12 18.2232V19.7612ZM8.03701 7.82093L8.03591 7.82294L8.03701 7.82093Z" fill="#FFD351"/>
</svg>
