<svg width="32" height="32" viewBox="0 0 32 32" fill="none" xmlns="http://www.w3.org/2000/svg">
<g id="ic_close">
<path id="Combined Shape" fill-rule="evenodd" clip-rule="evenodd" d="M15.75 6C10.3652 6 6 10.3652 6 15.75C6 21.1348 10.3652 25.5 15.75 25.5C21.1348 25.5 25.5 21.1348 25.5 15.75C25.5 10.3652 21.1348 6 15.75 6ZM19.0077 11.4316C19.2588 11.1805 19.6997 11.2145 19.9926 11.5074C20.2646 11.7793 20.3133 12.179 20.1178 12.4357L20.0684 12.4923L16.8107 15.75L20.0684 19.0077C20.3195 19.2588 20.2855 19.6997 19.9926 19.9926C19.7207 20.2646 19.321 20.3133 19.0643 20.1178L19.0077 20.0684L15.75 16.8107L12.4923 20.0684C12.2412 20.3195 11.8003 20.2855 11.5074 19.9926C11.2354 19.7207 11.1867 19.321 11.3822 19.0643L11.4316 19.0077L14.6893 15.75L11.4316 12.4923C11.1805 12.2412 11.2145 11.8003 11.5074 11.5074C11.7793 11.2354 12.179 11.1867 12.4357 11.3822L12.4923 11.4316L15.75 14.6893L19.0077 11.4316Z" fill="#F04A47"/>
</g>
</svg>
