<svg width="55" height="54" viewBox="0 0 55 54" fill="none" xmlns="http://www.w3.org/2000/svg">
<g id="Tick Square">
<path id="Tick Square_2" fill-rule="evenodd" clip-rule="evenodd" d="M15.9559 0.333008H39.0759C48.1159 0.333008 54.1693 6.67968 54.1693 16.1197V37.909C54.1693 47.3197 48.1159 53.6663 39.0759 53.6663H15.9559C6.91594 53.6663 0.835938 47.3197 0.835938 37.909V16.1197C0.835938 6.67968 6.91594 0.333008 15.9559 0.333008ZM25.9838 34.9733L38.6504 22.3067C39.5571 21.4 39.5571 19.9333 38.6504 19C37.7438 18.0933 36.2504 18.0933 35.3438 19L24.3304 30.0133L19.6638 25.3467C18.7571 24.44 17.2638 24.44 16.3571 25.3467C15.4504 26.2533 15.4504 27.72 16.3571 28.6533L22.7038 34.9733C23.1571 35.4267 23.7438 35.64 24.3304 35.64C24.9438 35.64 25.5304 35.4267 25.9838 34.9733Z" fill="#4FD08A"/>
</g>
</svg>
